<?xml version="1.0" encoding="UTF-8" standalone="no"?><svg xmlns="http://www.w3.org/2000/svg" xmlns:xlink="http://www.w3.org/1999/xlink" contentScriptType="application/ecmascript" contentStyleType="text/css" height="990.6px" preserveAspectRatio="none" style="width:1023px;height:990px;" version="1.1" viewBox="0 0 1023 990" width="1023px" zoomAndPan="magnify"><defs><filter height="300%" id="fuz352p654lx9" width="300%" x="-1" y="-1"><feGaussianBlur result="blurOut" stdDeviation="1.2"/><feColorMatrix in="blurOut" result="blurOut2" type="matrix" values="0 0 0 0 0 0 0 0 0 0 0 0 0 0 0 0 0 0 .4 0"/><feOffset dx="2.4" dy="2.4" in="blurOut2" result="blurOut3"/><feBlend in="SourceGraphic" in2="blurOut3" mode="normal"/></filter></defs><g><!--MD5=[9b354ac78d9816af00f6e81900636e9a]
cluster o.w.o.server.io.db--><polygon fill="#FFFFFF" filter="url(#fuz352p654lx9)" points="723.6,405.9,803.4,405.9,807.6,420.9721,1009.8,420.9721,1009.8,655.8,723.6,655.8,723.6,405.9" style="stroke: #000000; stroke-width: 0.8999999999999999;"/><line style="stroke: #000000; stroke-width: 0.8999999999999999;" x1="723.6" x2="807.6" y1="420.9721" y2="420.9721"/><text fill="#000000" font-family="sans-serif" font-size="8.4" font-weight="bold" lengthAdjust="spacingAndGlyphs" textLength="76.2" x="726" y="416.7264">o.w.o.server.io.db</text><!--MD5=[0bd9a0e189b2de279a2994671fc493ba]
cluster o.w.o.resource.symbol--><polygon fill="#FFFFFF" filter="url(#fuz352p654lx9)" points="13.2,125.4,111.6,125.4,115.8,140.4721,709.2,140.4721,709.2,983.4,13.2,983.4,13.2,125.4" style="stroke: #000000; stroke-width: 0.8999999999999999;"/><line style="stroke: #000000; stroke-width: 0.8999999999999999;" x1="13.2" x2="115.8" y1="140.4721" y2="140.4721"/><text fill="#000000" font-family="sans-serif" font-size="8.4" font-weight="bold" lengthAdjust="spacingAndGlyphs" textLength="94.8" x="15.6" y="136.2264">o.w.o.resource.symbol</text><!--MD5=[27f772719433d509ddbc20ff768eba08]
cluster domain--><polygon fill="#FFFFFF" filter="url(#fuz352p654lx9)" points="199.2,680.4,233.4,680.4,237.6,695.4721,690,695.4721,690,964.2,199.2,964.2,199.2,680.4" style="stroke: #000000; stroke-width: 0.8999999999999999;"/><line style="stroke: #000000; stroke-width: 0.8999999999999999;" x1="199.2" x2="237.6" y1="695.4721" y2="695.4721"/><text fill="#000000" font-family="sans-serif" font-size="8.4" font-weight="bold" lengthAdjust="spacingAndGlyphs" textLength="30.6" x="201.6" y="691.2264">domain</text><!--MD5=[66961468a754f910770f9324ae1946e2]
cluster ext.space--><polygon fill="#FFFFFF" filter="url(#fuz352p654lx9)" points="546,874.8,590.4,874.8,594.6,889.8721,670.8,889.8721,670.8,945,546,945,546,874.8" style="stroke: #000000; stroke-width: 0.8999999999999999;"/><line style="stroke: #000000; stroke-width: 0.8999999999999999;" x1="546" x2="594.6" y1="889.8721" y2="889.8721"/><text fill="#000000" font-family="sans-serif" font-size="8.4" font-weight="bold" lengthAdjust="spacingAndGlyphs" textLength="40.8" x="548.4" y="885.6264">ext.space</text><!--MD5=[bd0bd4c41e0e5269e37474fd45a6abb7]
cluster repository--><polygon fill="#FFFFFF" filter="url(#fuz352p654lx9)" points="281.4,567.3,328.2,567.3,332.4,582.3721,606,582.3721,606,647.1,281.4,647.1,281.4,567.3" style="stroke: #000000; stroke-width: 0.8999999999999999;"/><line style="stroke: #000000; stroke-width: 0.8999999999999999;" x1="281.4" x2="332.4" y1="582.3721" y2="582.3721"/><text fill="#000000" font-family="sans-serif" font-size="8.4" font-weight="bold" lengthAdjust="spacingAndGlyphs" textLength="43.2" x="283.8" y="578.1264">repository</text><!--MD5=[7579d5565d2521d5936cec86ed3dadee]
cluster service--><polygon fill="#FFFFFF" filter="url(#fuz352p654lx9)" points="32.4,157.8,67.8,157.8,72,172.8721,690,172.8721,690,537.9,32.4,537.9,32.4,157.8" style="stroke: #000000; stroke-width: 0.8999999999999999;"/><line style="stroke: #000000; stroke-width: 0.8999999999999999;" x1="32.4" x2="72" y1="172.8721" y2="172.8721"/><text fill="#000000" font-family="sans-serif" font-size="8.4" font-weight="bold" lengthAdjust="spacingAndGlyphs" textLength="31.8" x="34.8" y="168.6264">service</text><!--MD5=[5336d0432c5753478f8bb0248199b33b]
cluster handler--><polygon fill="#FFFFFF" filter="url(#fuz352p654lx9)" points="152.4,195,188.4,195,192.6,210.0721,666,210.0721,666,513.9,152.4,513.9,152.4,195" style="stroke: #000000; stroke-width: 0.8999999999999999;"/><line style="stroke: #000000; stroke-width: 0.8999999999999999;" x1="152.4" x2="192.6" y1="210.0721" y2="210.0721"/><text fill="#000000" font-family="sans-serif" font-size="8.4" font-weight="bold" lengthAdjust="spacingAndGlyphs" textLength="32.4" x="154.8" y="205.8264">handler</text><!--MD5=[99247af6f1cdddd58dbb8bd2b98dca2c]
cluster ext.handler--><polygon fill="#FFFFFF" filter="url(#fuz352p654lx9)" points="331.2,410.1,382.8,410.1,387,425.1721,503.4,425.1721,503.4,489.9,331.2,489.9,331.2,410.1" style="stroke: #000000; stroke-width: 0.8999999999999999;"/><line style="stroke: #000000; stroke-width: 0.8999999999999999;" x1="331.2" x2="387" y1="425.1721" y2="425.1721"/><text fill="#000000" font-family="sans-serif" font-size="8.4" font-weight="bold" lengthAdjust="spacingAndGlyphs" textLength="48" x="333.6" y="420.9264">ext.handler</text><!--MD5=[1c248d4b5f01cc8c7b958c8d64e9885d]
cluster o.w.o.api.symbol--><path d="M42.0043,24.5695 C44.0683,21.2362 46.8076,21.2416 48.9804,24.4535 C50.8125,19.975 54.201,19.6313 57.2702,23.1752 C58.7017,19.7812 61.8465,19.4372 64.102,22.2714 C66.5815,18.2725 69.6245,18.3499 72.103,22.2725 C73.2465,19.4327 76.2506,18.0937 78.4632,21.1118 C81.1857,17.19 83.6201,17.9366 86.0688,21.3941 C88.6914,17.4849 92.7072,17.8172 94.204,22.4645 C97.0779,19.2795 99.8779,20.0086 101.3718,23.8686 C103.8962,20.0852 106.9557,21.23 108.9584,24.435 C114.0373,20.5516 117.6576,22.8306 119.4,28.2 C119.9636,27.7225 120.3231,27.9191 120.5505,28.5492 C124.751,29.966 124.8888,33.1665 121.6185,35.6992 C124.849,37.3908 125.793,40.1311 122.3221,42.5146 C125.7477,43.5397 126.5006,45.8374 123.8613,48.4384 C127.7801,49.9554 128.0513,51.9638 125.206,54.8906 C128.0123,57.5236 127.3806,60.9798 123.4524,61.9368 C126.8852,64.774 125.8531,67.3948 122.187,68.9514 C125.2966,71.5612 123.7716,74.4674 120.6425,75.6357 C122.9924,80.4967 120.7786,84.8507 115.2,85.2 C115.9994,85.3763 116.0433,85.8926 115.6103,86.4678 C113.6379,89.7235 111.1307,90.5968 108.4802,87.1939 C106.1637,90.6458 103.2087,90.9391 100.5117,87.6432 C98.7065,90.9566 95.8459,92.2515 93.1589,88.5702 C91.572,92.3893 88.6744,92.4007 86.3804,89.2586 C85.51,93.3168 81.8895,93.8145 79.2679,91.0967 C75.9984,94.6901 73.4214,93.2917 71.7333,89.4862 C69.7402,92.778 66.3445,92.7274 64.7192,89.1128 C61.5809,92.5679 58.5428,92.83 56.5455,87.9887 C53.7817,91.5476 50.7756,90.5008 49.1597,86.8181 C42.9963,91.8386 37.1611,88.7289 37.2,81 C37.7766,80.7158 38.1292,80.8808 38.2008,81.5373 C35.2557,80.1253 34.9609,77.817 37.2461,75.5684 C33.236,73.8207 32.6255,71.2678 35.3614,67.8688 C32.1589,66.4206 32.2074,63.9729 34.6288,61.8412 C30.5266,60.828 30.2617,57.8265 32.7566,55.0063 C29.908,52.1191 30.5729,49.994 34.2933,48.7101 C31.1273,46.2919 31.7255,43.9806 34.9364,42.1914 C32.8429,39.7196 33.0804,36.5538 36.9665,36.0626 C31.8711,30.3071 34.5902,25.3798 41.4,24 C41.825,23.8916 42.0877,24.1385 42.0043,24.5695 " fill="#FFD700" style="stroke: #000000; stroke-width: 0.8999999999999999;"/><text fill="#000000" font-family="sans-serif" font-size="8.4" font-weight="bold" lengthAdjust="spacingAndGlyphs" textLength="69" x="43.8" y="36.6264">o.w.o.api.symbol</text><!--MD5=[89ae2598d32f9a83111d1f13044b0f24]
class EntityIdentity--><rect fill="#FEFECE" filter="url(#fuz352p654lx9)" height="55.8413" id="EntityIdentity" style="stroke: #A80036; stroke-width: 0.8999999999999999;" width="59.4" x="851.1" y="428.7"/><ellipse cx="860.1" cy="438.3" fill="#ADD1B2" rx="6.6" ry="6.6" style="stroke: #A80036; stroke-width: 0.6;"/><path d="M859.9125,441.9 Q858.75,441.9 858.075,441.0469 Q857.4,440.1844 857.4,438.4125 Q857.4,436.9125 858.1125,435.9 Q858.825,434.8875 860.0625,434.8875 Q860.3344,434.8875 860.5969,434.8875 Q860.8594,434.8875 861.0469,434.8875 Q861.1969,434.8875 861.2906,434.8875 Q861.3938,434.8875 861.6375,434.8875 L862.0594,437.1 L861.4219,437.1 Q861.1594,436.4437 860.8125,436.1719 Q860.475,435.9 859.9219,435.9 Q859.2281,435.9 858.8156,436.6125 Q858.4125,437.3156 858.4125,438.4125 Q858.4125,439.6219 858.7219,440.2594 Q859.0406,440.8875 859.8844,440.8875 Q860.4375,440.8875 860.8219,440.55 Q861.2156,440.2031 861.4219,439.3688 L862.0406,439.6781 Q861.8063,440.7281 861.2438,441.3187 Q860.6813,441.9 859.9125,441.9 Z "/><text fill="#000000" font-family="sans-serif" font-size="7.2" lengthAdjust="spacingAndGlyphs" textLength="40.2" x="868.5" y="441.6346">EntityIdentity</text><line style="stroke: #A80036; stroke-width: 0.8999999999999999;" x1="851.7" x2="909.9" y1="447.9" y2="447.9"/><text fill="#000000" font-family="sans-serif" font-size="6.6" lengthAdjust="spacingAndGlyphs" textLength="23.4" x="854.7" y="457.8636">String id</text><text fill="#000000" font-family="sans-serif" font-size="6.6" lengthAdjust="spacingAndGlyphs" textLength="31.8" x="854.7" y="466.8773">Date cTime</text><text fill="#000000" font-family="sans-serif" font-size="6.6" lengthAdjust="spacingAndGlyphs" textLength="31.8" x="854.7" y="475.8911">Date uTime</text><line style="stroke: #A80036; stroke-width: 0.8999999999999999;" x1="851.7" x2="909.9" y1="479.7413" y2="479.7413"/><!--MD5=[a60007a1cc5b1dd5ac07e4a2fe8f9b0a]
class EntityWithSpace--><rect fill="#FEFECE" filter="url(#fuz352p654lx9)" height="64.8551" id="EntityWithSpace" style="stroke: #A80036; stroke-width: 0.8999999999999999;" width="151.2" x="733.2" y="581.4"/><ellipse cx="742.2" cy="591" fill="#ADD1B2" rx="6.6" ry="6.6" style="stroke: #A80036; stroke-width: 0.6;"/><path d="M742.0125,594.6 Q740.85,594.6 740.175,593.7469 Q739.5,592.8844 739.5,591.1125 Q739.5,589.6125 740.2125,588.6 Q740.925,587.5875 742.1625,587.5875 Q742.4344,587.5875 742.6969,587.5875 Q742.9594,587.5875 743.1469,587.5875 Q743.2969,587.5875 743.3906,587.5875 Q743.4938,587.5875 743.7375,587.5875 L744.1594,589.8 L743.5219,589.8 Q743.2594,589.1438 742.9125,588.8719 Q742.575,588.6 742.0219,588.6 Q741.3281,588.6 740.9156,589.3125 Q740.5125,590.0156 740.5125,591.1125 Q740.5125,592.3219 740.8219,592.9594 Q741.1406,593.5875 741.9844,593.5875 Q742.5375,593.5875 742.9219,593.25 Q743.3156,592.9031 743.5219,592.0688 L744.1406,592.3781 Q743.9063,593.4281 743.3438,594.0188 Q742.7813,594.6 742.0125,594.6 Z "/><text fill="#000000" font-family="sans-serif" font-size="7.2" lengthAdjust="spacingAndGlyphs" textLength="52.8" x="750.6" y="594.3346">EntityWithSpace</text><rect fill="#FFFFFF" height="11.0332" style="stroke: #000000; stroke-width: 0.6; stroke-dasharray: 2.0,2.0;" width="78" x="808.2" y="579.6"/><text fill="#000000" font-family="sans-serif" font-size="7.2" font-style="italic" lengthAdjust="spacingAndGlyphs" textLength="76.8" x="808.8" y="588.4512">EntityType, EntitySpace</text><line style="stroke: #A80036; stroke-width: 0.8999999999999999;" x1="733.8" x2="883.8" y1="600.6" y2="600.6"/><ellipse cx="739.8" cy="607.2" fill="none" rx="1.8" ry="1.8" style="stroke: #038048; stroke-width: 0.6;"/><text fill="#000000" font-family="sans-serif" font-size="6.6" lengthAdjust="spacingAndGlyphs" textLength="44.4" x="745.2" y="610.5636">EntityType type</text><line style="stroke: #A80036; stroke-width: 0.6;" x1="733.8" x2="883.8" y1="614.4138" y2="614.4138"/><ellipse cx="739.8" cy="621.0138" fill="none" rx="1.8" ry="1.8" style="stroke: #038048; stroke-width: 0.6;"/><text fill="#000000" font-family="sans-serif" font-size="6.6" lengthAdjust="spacingAndGlyphs" textLength="54" x="745.2" y="624.3773">EntitySpace space</text><ellipse cx="739.8" cy="630.0275" fill="none" rx="1.8" ry="1.8" style="stroke: #038048; stroke-width: 0.6;"/><text fill="#000000" font-family="sans-serif" font-size="6.6" lengthAdjust="spacingAndGlyphs" textLength="41.4" x="745.2" y="633.3911">String spaceId</text><ellipse cx="739.8" cy="639.0413" fill="none" rx="1.8" ry="1.8" style="stroke: #038048; stroke-width: 0.6;"/><text fill="#000000" font-family="sans-serif" font-size="6.6" lengthAdjust="spacingAndGlyphs" textLength="55.8" x="745.2" y="642.4049">Json spaceContent</text><!--MD5=[1eb717e044ab0f82e99bd941bd7b45c1]
class EntitySpace--><rect fill="#FEFECE" filter="url(#fuz352p654lx9)" height="37.8138" id="EntitySpace" style="stroke: #A80036; stroke-width: 0.8999999999999999;" width="94.2" x="905.7" y="594.9"/><ellipse cx="914.7" cy="604.5" fill="#ADD1B2" rx="6.6" ry="6.6" style="stroke: #A80036; stroke-width: 0.6;"/><path d="M914.5125,608.1 Q913.35,608.1 912.675,607.2469 Q912,606.3844 912,604.6125 Q912,603.1125 912.7125,602.1 Q913.425,601.0875 914.6625,601.0875 Q914.9344,601.0875 915.1969,601.0875 Q915.4594,601.0875 915.6469,601.0875 Q915.7969,601.0875 915.8906,601.0875 Q915.9938,601.0875 916.2375,601.0875 L916.6594,603.3 L916.0219,603.3 Q915.7594,602.6438 915.4125,602.3719 Q915.075,602.1 914.5219,602.1 Q913.8281,602.1 913.4156,602.8125 Q913.0125,603.5156 913.0125,604.6125 Q913.0125,605.8219 913.3219,606.4594 Q913.6406,607.0875 914.4844,607.0875 Q915.0375,607.0875 915.4219,606.75 Q915.8156,606.4031 916.0219,605.5688 L916.6406,605.8781 Q916.4063,606.9281 915.8438,607.5188 Q915.2813,608.1 914.5125,608.1 Z "/><text fill="#000000" font-family="sans-serif" font-size="7.2" lengthAdjust="spacingAndGlyphs" textLength="38.4" x="923.1" y="607.8346">EntitySpace</text><rect fill="#FFFFFF" height="11.0332" style="stroke: #000000; stroke-width: 0.6; stroke-dasharray: 2.0,2.0;" width="35.4" x="966.3" y="593.1"/><text fill="#000000" font-family="sans-serif" font-size="7.2" font-style="italic" lengthAdjust="spacingAndGlyphs" textLength="34.2" x="966.9" y="601.9512">EntityType</text><line style="stroke: #A80036; stroke-width: 0.8999999999999999;" x1="906.3" x2="999.3" y1="614.1" y2="614.1"/><ellipse cx="912.3" cy="620.7" fill="none" rx="1.8" ry="1.8" style="stroke: #038048; stroke-width: 0.6;"/><text fill="#000000" font-family="sans-serif" font-size="6.6" lengthAdjust="spacingAndGlyphs" textLength="44.4" x="917.7" y="624.0636">EntityType type</text><line style="stroke: #A80036; stroke-width: 0.8999999999999999;" x1="906.3" x2="999.3" y1="627.9138" y2="627.9138"/><!--MD5=[f038e3992c7865445b08f2285d0c9c87]
class EntityAType--><rect fill="#FEFECE" filter="url(#fuz352p654lx9)" height="37.8138" id="EntityAType" style="stroke: #A80036; stroke-width: 0.8999999999999999;" width="135" x="278.1" y="808.8"/><ellipse cx="324.45" cy="818.4" fill="#ADD1B2" rx="6.6" ry="6.6" style="stroke: #A80036; stroke-width: 0.6;"/><path d="M324.2625,822 Q323.1,822 322.425,821.1469 Q321.75,820.2844 321.75,818.5125 Q321.75,817.0125 322.4625,816 Q323.175,814.9875 324.4125,814.9875 Q324.6844,814.9875 324.9469,814.9875 Q325.2094,814.9875 325.3969,814.9875 Q325.5469,814.9875 325.6406,814.9875 Q325.7438,814.9875 325.9875,814.9875 L326.4094,817.2 L325.7719,817.2 Q325.5094,816.5437 325.1625,816.2719 Q324.825,816 324.2719,816 Q323.5781,816 323.1656,816.7125 Q322.7625,817.4156 322.7625,818.5125 Q322.7625,819.7219 323.0719,820.3594 Q323.3906,820.9875 324.2344,820.9875 Q324.7875,820.9875 325.1719,820.65 Q325.5656,820.3031 325.7719,819.4688 L326.3906,819.7781 Q326.1563,820.8281 325.5938,821.4187 Q325.0313,822 324.2625,822 Z "/><text fill="#000000" font-family="sans-serif" font-size="7.2" lengthAdjust="spacingAndGlyphs" textLength="37.2" x="336.75" y="821.7346">EntityAType</text><line style="stroke: #A80036; stroke-width: 0.8999999999999999;" x1="278.7" x2="412.5" y1="828" y2="828"/><line style="stroke: #A80036; stroke-width: 0.8999999999999999;" x1="278.7" x2="412.5" y1="832.8" y2="832.8"/><ellipse cx="284.7" cy="839.4" fill="#84BE84" rx="1.8" ry="1.8" style="stroke: #038048; stroke-width: 0.6;"/><text fill="#000000" font-family="sans-serif" font-size="6.6" lengthAdjust="spacingAndGlyphs" textLength="119.4" x="290.1" y="842.7636">EntityAType from(EntityATypeEnum type)</text><!--MD5=[4c7a6fbb342179924da38f1ef3f35aa3]
class EntityATypeEnum--><rect fill="#FEFECE" filter="url(#fuz352p654lx9)" height="46.8275" id="EntityATypeEnum" style="stroke: #A80036; stroke-width: 0.8999999999999999;" width="76.2" x="316.5" y="893.1"/><ellipse cx="325.5" cy="902.7" fill="#EB937F" rx="6.6" ry="6.6" style="stroke: #A80036; stroke-width: 0.6;"/><path d="M323.1375,900.3 L323.1375,899.2875 L327.7594,899.2875 L328.4156,900.9 L327.8344,900.9 Q327.4406,900.5719 327.0563,900.4406 Q326.6719,900.3 326.2125,900.3 L324.9188,900.3 Q324.7875,900.3 324.7219,900.3 Q324.6656,900.3 324.7125,900.3 L324.7125,901.6875 L325.5938,901.6875 Q325.8656,901.6875 325.9781,901.5281 Q326.1,901.3688 326.1,900.975 L326.1,900.4875 L327.1125,900.4875 L327.1125,903.9 L326.1,903.9 L326.1,903.5156 Q326.1,903.0844 325.9781,902.8969 Q325.8563,902.7 325.5938,902.7 L324.7125,902.7 L324.7125,905.2031 Q324.7125,905.2406 324.75,905.2688 Q324.7875,905.2875 324.9,905.2875 L326.0531,905.2875 Q326.7281,905.2875 327.1031,905.0344 Q327.4781,904.7719 327.7688,904.0875 L328.3688,904.0875 L327.7969,906.3 L323.1,906.3 L323.1,905.2875 L323.5406,905.2875 Q323.6719,905.2875 323.6813,905.2781 Q323.7,905.2688 323.7,905.2219 L323.7,900.3656 Q323.7,900.3188 323.6813,900.3094 Q323.6719,900.3 323.5406,900.3 L323.1375,900.3 Z "/><text fill="#000000" font-family="sans-serif" font-size="7.2" lengthAdjust="spacingAndGlyphs" textLength="57" x="333.9" y="906.0346">EntityATypeEnum</text><line style="stroke: #A80036; stroke-width: 0.8999999999999999;" x1="317.1" x2="392.1" y1="912.3" y2="912.3"/><text fill="#000000" font-family="sans-serif" font-size="6.6" lengthAdjust="spacingAndGlyphs" textLength="28.2" x="320.1" y="922.2636">Integer id;</text><text fill="#000000" font-family="sans-serif" font-size="6.6" lengthAdjust="spacingAndGlyphs" textLength="49.2" x="320.1" y="931.2773">String typeName;</text><line style="stroke: #A80036; stroke-width: 0.8999999999999999;" x1="317.1" x2="392.1" y1="935.1275" y2="935.1275"/><!--MD5=[14f2a2571c9376cf9b3649ee61c29135]
class EntityATypeName--><rect fill="#FEFECE" filter="url(#fuz352p654lx9)" height="28.8" id="EntityATypeName" style="stroke: #A80036; stroke-width: 0.8999999999999999;" width="76.8" x="218.4" y="902.1"/><ellipse cx="227.4" cy="911.7" fill="#ADD1B2" rx="6.6" ry="6.6" style="stroke: #A80036; stroke-width: 0.6;"/><path d="M227.2125,915.3 Q226.05,915.3 225.375,914.4469 Q224.7,913.5844 224.7,911.8125 Q224.7,910.3125 225.4125,909.3 Q226.125,908.2875 227.3625,908.2875 Q227.6344,908.2875 227.8969,908.2875 Q228.1594,908.2875 228.3469,908.2875 Q228.4969,908.2875 228.5906,908.2875 Q228.6938,908.2875 228.9375,908.2875 L229.3594,910.5 L228.7219,910.5 Q228.4594,909.8438 228.1125,909.5719 Q227.775,909.3 227.2219,909.3 Q226.5281,909.3 226.1156,910.0125 Q225.7125,910.7156 225.7125,911.8125 Q225.7125,913.0219 226.0219,913.6594 Q226.3406,914.2875 227.1844,914.2875 Q227.7375,914.2875 228.1219,913.95 Q228.5156,913.6031 228.7219,912.7688 L229.3406,913.0781 Q229.1063,914.1281 228.5438,914.7188 Q227.9813,915.3 227.2125,915.3 Z "/><text fill="#000000" font-family="sans-serif" font-size="7.2" lengthAdjust="spacingAndGlyphs" textLength="57.6" x="235.8" y="915.0346">EntityATypeName</text><line style="stroke: #A80036; stroke-width: 0.8999999999999999;" x1="219" x2="294.6" y1="921.3" y2="921.3"/><line style="stroke: #A80036; stroke-width: 0.8999999999999999;" x1="219" x2="294.6" y1="926.1" y2="926.1"/><!--MD5=[33da807c7ae9be0441f8dba4c6a395d3]
class EntityASpace--><rect fill="#FEFECE" filter="url(#fuz352p654lx9)" height="44.2802" id="EntityASpace" style="stroke: #A80036; stroke-width: 0.8999999999999999;" width="64.8" x="414" y="894.3"/><ellipse cx="423.27" cy="907.1332" fill="#A9DCDF" rx="6.6" ry="6.6" style="stroke: #A80036; stroke-width: 0.6;"/><path d="M423.9169,907.7332 L422.2294,907.7332 L421.7419,908.6988 Q421.7138,908.7926 421.7138,908.877 Q421.7138,908.9895 421.7419,909.0551 Q421.77,909.1207 421.9013,909.1207 L422.2294,909.1207 L422.2294,910.1332 L420.27,910.1332 L420.27,909.1207 L420.6075,909.1207 Q420.7388,909.1207 420.8044,909.0832 Q420.8794,909.0457 420.9075,908.9332 L422.7638,903.1207 L423.5888,903.1207 L425.4075,908.8676 Q425.4638,909.0082 425.5481,909.0645 Q425.6325,909.1207 425.745,909.1207 L426.0825,909.1207 L426.0825,910.1332 L423.8888,910.1332 L423.8888,909.1207 L424.2544,909.1207 Q424.3575,909.1207 424.3575,909.1113 Q424.3669,909.102 424.3669,909.0645 Q424.3669,908.9613 424.3481,908.9051 L423.9169,907.7332 Z M420.7856,909.5332 L420.7856,909.5332 Z M421.1888,909.5332 L421.1888,909.5332 Z M424.02,909.5332 L424.02,909.5332 Z M424.695,909.5332 L424.695,909.5332 Z M423.0169,904.377 L423.0638,904.377 L422.5481,906.7207 L423.72,906.7207 L423.0169,904.377 Z "/><text fill="#000000" font-family="sans-serif" font-size="7.2" font-style="italic" lengthAdjust="spacingAndGlyphs" textLength="47.4" x="430.53" y="905.5512">«EntityAType»</text><text fill="#000000" font-family="sans-serif" font-size="7.2" font-style="italic" lengthAdjust="spacingAndGlyphs" textLength="43.8" x="432.33" y="915.3844">EntityASpace</text><line style="stroke: #A80036; stroke-width: 0.8999999999999999;" x1="414.6" x2="478.2" y1="919.9664" y2="919.9664"/><ellipse cx="420.6" cy="926.5664" fill="none" rx="1.8" ry="1.8" style="stroke: #038048; stroke-width: 0.6;"/><text fill="#000000" font-family="sans-serif" font-size="6.6" lengthAdjust="spacingAndGlyphs" textLength="49.2" x="426" y="929.93">EntityAType type</text><line style="stroke: #A80036; stroke-width: 0.8999999999999999;" x1="414.6" x2="478.2" y1="933.7802" y2="933.7802"/><!--MD5=[6ab431f4e64fbcb9b406d8a8910ac154]
class EntityA--><rect fill="#FEFECE" filter="url(#fuz352p654lx9)" height="53.2939" id="EntityA" style="stroke: #A80036; stroke-width: 0.8999999999999999;" width="111.6" x="399.6" y="708"/><ellipse cx="408.6" cy="720.8332" fill="#ADD1B2" rx="6.6" ry="6.6" style="stroke: #A80036; stroke-width: 0.6;"/><path d="M408.4125,724.4332 Q407.25,724.4332 406.575,723.5801 Q405.9,722.7176 405.9,720.9457 Q405.9,719.4457 406.6125,718.4332 Q407.325,717.4207 408.5625,717.4207 Q408.8344,717.4207 409.0969,717.4207 Q409.3594,717.4207 409.5469,717.4207 Q409.6969,717.4207 409.7906,717.4207 Q409.8938,717.4207 410.1375,717.4207 L410.5594,719.6332 L409.9219,719.6332 Q409.6594,718.977 409.3125,718.7051 Q408.975,718.4332 408.4219,718.4332 Q407.7281,718.4332 407.3156,719.1457 Q406.9125,719.8488 406.9125,720.9457 Q406.9125,722.1551 407.2219,722.7926 Q407.5406,723.4207 408.3844,723.4207 Q408.9375,723.4207 409.3219,723.0832 Q409.7156,722.7363 409.9219,721.902 L410.5406,722.2113 Q410.3063,723.2613 409.7438,723.852 Q409.1813,724.4332 408.4125,724.4332 Z "/><text fill="#000000" font-family="sans-serif" font-size="7.2" font-style="italic" lengthAdjust="spacingAndGlyphs" textLength="94.8" x="415.8" y="719.2512">«EntityAType, EntityASpace»</text><text fill="#000000" font-family="sans-serif" font-size="7.2" lengthAdjust="spacingAndGlyphs" textLength="21.6" x="452.4" y="729.0844">EntityA</text><line style="stroke: #A80036; stroke-width: 0.8999999999999999;" x1="400.2" x2="510.6" y1="733.6664" y2="733.6664"/><ellipse cx="406.2" cy="740.2664" fill="none" rx="1.8" ry="1.8" style="stroke: #038048; stroke-width: 0.6;"/><text fill="#000000" font-family="sans-serif" font-size="6.6" lengthAdjust="spacingAndGlyphs" textLength="49.2" x="411.6" y="743.63">EntityAType type</text><ellipse cx="406.2" cy="749.2802" fill="none" rx="1.8" ry="1.8" style="stroke: #038048; stroke-width: 0.6;"/><text fill="#000000" font-family="sans-serif" font-size="6.6" lengthAdjust="spacingAndGlyphs" textLength="58.8" x="411.6" y="752.6438">EntityASpace space</text><line style="stroke: #A80036; stroke-width: 0.8999999999999999;" x1="400.2" x2="510.6" y1="756.4939" y2="756.4939"/><!--MD5=[694711b5a90f00b7c5c9a5a87797b94b]
class ImplementedEntityASpace--><rect fill="#FEFECE" filter="url(#fuz352p654lx9)" height="37.8138" id="ImplementedEntityASpace" style="stroke: #A80036; stroke-width: 0.8999999999999999;" width="105.6" x="555.6" y="897.6"/><ellipse cx="564.6" cy="907.2" fill="#ADD1B2" rx="6.6" ry="6.6" style="stroke: #A80036; stroke-width: 0.6;"/><path d="M564.4125,910.8 Q563.25,910.8 562.575,909.9469 Q561.9,909.0844 561.9,907.3125 Q561.9,905.8125 562.6125,904.8 Q563.325,903.7875 564.5625,903.7875 Q564.8344,903.7875 565.0969,903.7875 Q565.3594,903.7875 565.5469,903.7875 Q565.6969,903.7875 565.7906,903.7875 Q565.8938,903.7875 566.1375,903.7875 L566.5594,906 L565.9219,906 Q565.6594,905.3438 565.3125,905.0719 Q564.975,904.8 564.4219,904.8 Q563.7281,904.8 563.3156,905.5125 Q562.9125,906.2156 562.9125,907.3125 Q562.9125,908.5219 563.2219,909.1594 Q563.5406,909.7875 564.3844,909.7875 Q564.9375,909.7875 565.3219,909.45 Q565.7156,909.1031 565.9219,908.2688 L566.5406,908.5781 Q566.3063,909.6281 565.7438,910.2188 Q565.1813,910.8 564.4125,910.8 Z "/><text fill="#000000" font-family="sans-serif" font-size="7.2" lengthAdjust="spacingAndGlyphs" textLength="86.4" x="573" y="910.5346">ImplementedEntityASpace</text><line style="stroke: #A80036; stroke-width: 0.8999999999999999;" x1="556.2" x2="660.6" y1="916.8" y2="916.8"/><text fill="#000000" font-family="sans-serif" font-size="6.6" lengthAdjust="spacingAndGlyphs" textLength="97.2" x="559.2" y="926.7636">EntityAType type = EntityAType.X</text><line style="stroke: #A80036; stroke-width: 0.8999999999999999;" x1="556.2" x2="660.6" y1="930.6138" y2="930.6138"/><!--MD5=[c7130832f63e25b3e804fad33ad54b0c]
class EntityARepository--><rect fill="#FEFECE" filter="url(#fuz352p654lx9)" height="37.8138" id="EntityARepository" style="stroke: #A80036; stroke-width: 0.8999999999999999;" width="77.4" x="513.9" y="594.9"/><ellipse cx="522.9" cy="604.5" fill="#B4A7E5" rx="6.6" ry="6.6" style="stroke: #A80036; stroke-width: 0.6;"/><path d="M521.025,602.1 L521.025,601.0875 L524.5875,601.0875 L524.5875,602.1 L523.4625,602.1 Q523.3688,602.1 523.3406,602.1188 Q523.3125,602.1375 523.3125,602.1656 L523.3125,607.0219 Q523.3125,607.05 523.3406,607.0688 Q523.3688,607.0875 523.4625,607.0875 L524.5875,607.0875 L524.5875,608.1 L521.025,608.1 L521.025,607.0875 L522.15,607.0875 Q522.2719,607.0875 522.2813,607.0781 Q522.3,607.0688 522.3,607.0219 L522.3,602.1656 Q522.3,602.1188 522.2813,602.1094 Q522.2719,602.1 522.15,602.1 L521.025,602.1 Z "/><text fill="#000000" font-family="sans-serif" font-size="7.2" font-style="italic" lengthAdjust="spacingAndGlyphs" textLength="58.2" x="531.3" y="607.8346">EntityARepository</text><line style="stroke: #A80036; stroke-width: 0.8999999999999999;" x1="514.5" x2="590.7" y1="614.1" y2="614.1"/><line style="stroke: #A80036; stroke-width: 0.8999999999999999;" x1="514.5" x2="590.7" y1="618.9" y2="618.9"/><ellipse cx="520.5" cy="625.5" fill="#84BE84" rx="1.8" ry="1.8" style="stroke: #038048; stroke-width: 0.6;"/><text fill="#000000" font-family="sans-serif" font-size="6.6" lengthAdjust="spacingAndGlyphs" textLength="61.8" x="525.9" y="628.8636">save(EntityA entityA)</text><!--MD5=[74d6c2d67c2a81a30f78f23e8e1be5a2]
class ImplementedEntityASpaceRepository--><rect fill="#FEFECE" filter="url(#fuz352p654lx9)" height="37.8138" id="ImplementedEntityASpaceRepository" style="stroke: #A80036; stroke-width: 0.8999999999999999;" width="185.4" x="307.5" y="594.9"/><ellipse cx="335.85" cy="604.5" fill="#B4A7E5" rx="6.6" ry="6.6" style="stroke: #A80036; stroke-width: 0.6;"/><path d="M333.975,602.1 L333.975,601.0875 L337.5375,601.0875 L337.5375,602.1 L336.4125,602.1 Q336.3187,602.1 336.2906,602.1188 Q336.2625,602.1375 336.2625,602.1656 L336.2625,607.0219 Q336.2625,607.05 336.2906,607.0688 Q336.3187,607.0875 336.4125,607.0875 L337.5375,607.0875 L337.5375,608.1 L333.975,608.1 L333.975,607.0875 L335.1,607.0875 Q335.2219,607.0875 335.2313,607.0781 Q335.25,607.0688 335.25,607.0219 L335.25,602.1656 Q335.25,602.1188 335.2313,602.1094 Q335.2219,602.1 335.1,602.1 L333.975,602.1 Z "/><text fill="#000000" font-family="sans-serif" font-size="7.2" font-style="italic" lengthAdjust="spacingAndGlyphs" textLength="123.6" x="348.15" y="607.8346">ImplementedEntityASpaceRepository</text><line style="stroke: #A80036; stroke-width: 0.8999999999999999;" x1="308.1" x2="492.3" y1="614.1" y2="614.1"/><line style="stroke: #A80036; stroke-width: 0.8999999999999999;" x1="308.1" x2="492.3" y1="618.9" y2="618.9"/><ellipse cx="314.1" cy="625.5" fill="#84BE84" rx="1.8" ry="1.8" style="stroke: #038048; stroke-width: 0.6;"/><text fill="#000000" font-family="sans-serif" font-size="6.6" lengthAdjust="spacingAndGlyphs" textLength="169.8" x="319.5" y="628.8636">save(ImplementedEntityASpace implementedEntityASpace)</text><!--MD5=[4d0dcfc277b60444fd778358d47534a8]
class EntityAService--><rect fill="#FEFECE" filter="url(#fuz352p654lx9)" height="37.8138" id="EntityAService" style="stroke: #A80036; stroke-width: 0.8999999999999999;" width="77.4" x="58.5" y="218.1"/><ellipse cx="73.17" cy="227.7" fill="#ADD1B2" rx="6.6" ry="6.6" style="stroke: #A80036; stroke-width: 0.6;"/><path d="M72.9825,231.3 Q71.82,231.3 71.145,230.4469 Q70.47,229.5844 70.47,227.8125 Q70.47,226.3125 71.1825,225.3 Q71.895,224.2875 73.1325,224.2875 Q73.4044,224.2875 73.6669,224.2875 Q73.9294,224.2875 74.1169,224.2875 Q74.2669,224.2875 74.3606,224.2875 Q74.4638,224.2875 74.7075,224.2875 L75.1294,226.5 L74.4919,226.5 Q74.2294,225.8438 73.8825,225.5719 Q73.545,225.3 72.9919,225.3 Q72.2981,225.3 71.8856,226.0125 Q71.4825,226.7156 71.4825,227.8125 Q71.4825,229.0219 71.7919,229.6594 Q72.1106,230.2875 72.9544,230.2875 Q73.5075,230.2875 73.8919,229.95 Q74.2856,229.6031 74.4919,228.7687 L75.1106,229.0781 Q74.8763,230.1281 74.3138,230.7188 Q73.7513,231.3 72.9825,231.3 Z "/><text fill="#000000" font-family="sans-serif" font-size="7.2" lengthAdjust="spacingAndGlyphs" textLength="45.6" x="82.83" y="231.0346">EntityAService</text><line style="stroke: #A80036; stroke-width: 0.8999999999999999;" x1="59.1" x2="135.3" y1="237.3" y2="237.3"/><line style="stroke: #A80036; stroke-width: 0.8999999999999999;" x1="59.1" x2="135.3" y1="242.1" y2="242.1"/><ellipse cx="65.1" cy="248.7" fill="#84BE84" rx="1.8" ry="1.8" style="stroke: #038048; stroke-width: 0.6;"/><text fill="#000000" font-family="sans-serif" font-size="6.6" lengthAdjust="spacingAndGlyphs" textLength="61.8" x="70.5" y="252.0636">save(EntityA entityA)</text><!--MD5=[4ae32ff5bf1eb1f8e758a849025ec8d2]
class EntityASpaceHandler--><rect fill="#FEFECE" filter="url(#fuz352p654lx9)" height="37.8138" id="EntityASpaceHandler" style="stroke: #A80036; stroke-width: 0.8999999999999999;" width="89.4" x="185.7" y="437.7"/><ellipse cx="194.7" cy="447.3" fill="#A9DCDF" rx="6.6" ry="6.6" style="stroke: #A80036; stroke-width: 0.6;"/><path d="M195.3469,447.9 L193.6594,447.9 L193.1719,448.8656 Q193.1437,448.9594 193.1437,449.0438 Q193.1437,449.1563 193.1719,449.2219 Q193.2,449.2875 193.3312,449.2875 L193.6594,449.2875 L193.6594,450.3 L191.7,450.3 L191.7,449.2875 L192.0375,449.2875 Q192.1688,449.2875 192.2344,449.25 Q192.3094,449.2125 192.3375,449.1 L194.1938,443.2875 L195.0187,443.2875 L196.8375,449.0344 Q196.8937,449.175 196.9781,449.2313 Q197.0625,449.2875 197.175,449.2875 L197.5125,449.2875 L197.5125,450.3 L195.3188,450.3 L195.3188,449.2875 L195.6844,449.2875 Q195.7875,449.2875 195.7875,449.2781 Q195.7969,449.2688 195.7969,449.2313 Q195.7969,449.1281 195.7781,449.0719 L195.3469,447.9 Z M192.2156,449.7 L192.2156,449.7 Z M192.6188,449.7 L192.6188,449.7 Z M195.45,449.7 L195.45,449.7 Z M196.125,449.7 L196.125,449.7 Z M194.4469,444.5438 L194.4938,444.5438 L193.9781,446.8875 L195.15,446.8875 L194.4469,444.5438 Z "/><text fill="#000000" font-family="sans-serif" font-size="7.2" font-style="italic" lengthAdjust="spacingAndGlyphs" textLength="70.2" x="203.1" y="450.6346">EntityASpaceHandler</text><line style="stroke: #A80036; stroke-width: 0.8999999999999999;" x1="186.3" x2="274.5" y1="456.9" y2="456.9"/><line style="stroke: #A80036; stroke-width: 0.8999999999999999;" x1="186.3" x2="274.5" y1="461.7" y2="461.7"/><ellipse cx="192.3" cy="468.3" fill="#84BE84" rx="1.8" ry="1.8" style="stroke: #038048; stroke-width: 0.6;"/><text fill="#000000" font-family="sans-serif" font-size="6.6" lengthAdjust="spacingAndGlyphs" textLength="61.8" x="197.7" y="471.6636">save(EntityA entityA)</text><!--MD5=[704ff7fe291b932f6f6e56e07e08ced4]
class EntityATypeSelector--><rect fill="#FEFECE" filter="url(#fuz352p654lx9)" height="28.8" id="EntityATypeSelector" style="stroke: #A80036; stroke-width: 0.8999999999999999;" width="83.4" x="567.9" y="297"/><ellipse cx="576.9" cy="306.6" fill="#E3664A" rx="6.6" ry="6.6" style="stroke: #A80036; stroke-width: 0.6;"/><path d="M575.9531,308.7 Q575.5594,308.7 575.4844,308.3531 Q575.4094,308.0062 575.1,307.4344 Q575.1,306.5531 575.6813,305.625 Q576.2625,304.6875 576.8063,304.6875 Q577.0219,304.6875 577.1719,304.8 Q577.3313,304.9125 577.1906,305.0156 L577.1062,304.6875 L577.95,304.6875 L577.5563,306.9281 Q577.5188,307.2 577.4625,307.3969 Q577.4344,307.5656 577.4344,307.6406 Q577.4344,307.6781 577.4344,307.6875 Q577.4438,307.6875 577.4438,307.6875 Q577.6687,307.6875 577.8844,307.275 Q578.1,306.8531 578.1,306.0469 Q578.1,304.7156 577.6219,304.3125 Q577.1438,303.9 576.6094,303.9 Q575.9719,303.9 575.4375,304.5281 Q574.9125,305.1563 574.9125,306.7688 Q574.9125,308.175 575.2781,308.8313 Q575.6438,309.4875 576.6094,309.4875 Q577.2,309.4875 577.65,309.2156 Q578.1094,308.9437 578.5125,308.25 L579.1969,308.4656 Q578.6344,309.6281 578.025,310.0687 Q577.4156,310.5 576.6188,310.5 Q575.3813,310.5 574.6406,309.4219 Q573.9,308.3438 573.9,306.7594 Q573.9,304.9969 574.8,303.9469 Q575.7094,302.8875 576.7219,302.8875 Q577.7063,302.8875 578.4094,303.6281 Q579.1125,304.3688 579.1125,305.9719 Q579.1125,307.2469 578.475,307.9781 Q577.8375,308.7 577.3969,308.7 Q577.0875,308.7 576.8625,308.5125 Q576.6375,308.3156 576.7406,308.2219 Q576.7969,308.3531 576.5344,308.5313 Q576.2813,308.7 575.9531,308.7 Z M576.1875,307.6875 Q576.3094,307.6875 576.4313,307.5563 Q576.5625,307.4156 576.6656,307.0875 L576.9094,305.775 Q576.9187,305.7281 576.9,305.7188 Q576.8906,305.7 576.825,305.7 Q576.6938,305.7 576.4031,306.1781 Q576.1125,306.6563 576.1125,307.4344 Q576.1125,307.6125 576.1313,307.65 Q576.1594,307.6875 576.1875,307.6875 Z "/><text fill="#000000" font-family="sans-serif" font-size="7.2" lengthAdjust="spacingAndGlyphs" textLength="64.2" x="585.3" y="309.9346">EntityATypeSelector</text><line style="stroke: #A80036; stroke-width: 0.8999999999999999;" x1="568.5" x2="650.7" y1="316.2" y2="316.2"/><line style="stroke: #A80036; stroke-width: 0.8999999999999999;" x1="568.5" x2="650.7" y1="321" y2="321"/><!--MD5=[ee2362fd481af5382b69596779e20ec8]
class EntityASpaceHandlerHolder--><rect fill="#FEFECE" filter="url(#fuz352p654lx9)" height="37.8138" id="EntityASpaceHandlerHolder" style="stroke: #A80036; stroke-width: 0.8999999999999999;" width="202.8" x="171.6" y="292.5"/><ellipse cx="224.85" cy="302.1" fill="#ADD1B2" rx="6.6" ry="6.6" style="stroke: #A80036; stroke-width: 0.6;"/><path d="M224.6625,305.7 Q223.5,305.7 222.825,304.8469 Q222.15,303.9844 222.15,302.2125 Q222.15,300.7125 222.8625,299.7 Q223.575,298.6875 224.8125,298.6875 Q225.0844,298.6875 225.3469,298.6875 Q225.6094,298.6875 225.7969,298.6875 Q225.9469,298.6875 226.0406,298.6875 Q226.1437,298.6875 226.3875,298.6875 L226.8094,300.9 L226.1719,300.9 Q225.9094,300.2438 225.5625,299.9719 Q225.225,299.7 224.6719,299.7 Q223.9781,299.7 223.5656,300.4125 Q223.1625,301.1156 223.1625,302.2125 Q223.1625,303.4219 223.4719,304.0594 Q223.7906,304.6875 224.6344,304.6875 Q225.1875,304.6875 225.5719,304.35 Q225.9656,304.0031 226.1719,303.1688 L226.7906,303.4781 Q226.5563,304.5281 225.9938,305.1188 Q225.4313,305.7 224.6625,305.7 Z "/><text fill="#000000" font-family="sans-serif" font-size="7.2" lengthAdjust="spacingAndGlyphs" textLength="91.2" x="237.15" y="305.4346">EntityASpaceHandlerHolder</text><line style="stroke: #A80036; stroke-width: 0.8999999999999999;" x1="172.2" x2="373.8" y1="311.7" y2="311.7"/><line style="stroke: #A80036; stroke-width: 0.8999999999999999;" x1="172.2" x2="373.8" y1="316.5" y2="316.5"/><ellipse cx="178.2" cy="323.1" fill="#84BE84" rx="1.8" ry="1.8" style="stroke: #038048; stroke-width: 0.6;"/><text fill="#000000" font-family="sans-serif" font-size="6.6" lengthAdjust="spacingAndGlyphs" textLength="187.2" x="183.6" y="326.4636">Optional&lt;EntityASpaceHandler&gt; select(EntityAType entityAType)</text><!--MD5=[966643c7379f7f1ceeebd4a8711a83ae]
class ApplicationContextAware--><rect fill="#FEFECE" filter="url(#fuz352p654lx9)" height="28.8" id="ApplicationContextAware" style="stroke: #A80036; stroke-width: 0.8999999999999999;" width="101.4" x="222.3" y="222.6"/><ellipse cx="231.3" cy="232.2" fill="#B4A7E5" rx="6.6" ry="6.6" style="stroke: #A80036; stroke-width: 0.6;"/><path d="M229.425,229.8 L229.425,228.7875 L232.9875,228.7875 L232.9875,229.8 L231.8625,229.8 Q231.7687,229.8 231.7406,229.8188 Q231.7125,229.8375 231.7125,229.8656 L231.7125,234.7219 Q231.7125,234.75 231.7406,234.7687 Q231.7687,234.7875 231.8625,234.7875 L232.9875,234.7875 L232.9875,235.8 L229.425,235.8 L229.425,234.7875 L230.55,234.7875 Q230.6719,234.7875 230.6812,234.7781 Q230.7,234.7687 230.7,234.7219 L230.7,229.8656 Q230.7,229.8188 230.6812,229.8094 Q230.6719,229.8 230.55,229.8 L229.425,229.8 Z "/><text fill="#000000" font-family="sans-serif" font-size="7.2" font-style="italic" lengthAdjust="spacingAndGlyphs" textLength="82.2" x="239.7" y="235.5346">ApplicationContextAware</text><line style="stroke: #A80036; stroke-width: 0.8999999999999999;" x1="222.9" x2="323.1" y1="241.8" y2="241.8"/><line style="stroke: #A80036; stroke-width: 0.8999999999999999;" x1="222.9" x2="323.1" y1="246.6" y2="246.6"/><!--MD5=[e587ba6f4cf17fc3c208865aa9081727]
class ImplementedEntityASpaceHandler--><rect fill="#FEFECE" filter="url(#fuz352p654lx9)" height="37.8138" id="ImplementedEntityASpaceHandler" style="stroke: #A80036; stroke-width: 0.8999999999999999;" width="132" x="357" y="437.7"/><ellipse cx="366" cy="447.3" fill="#ADD1B2" rx="6.6" ry="6.6" style="stroke: #A80036; stroke-width: 0.6;"/><path d="M365.8125,450.9 Q364.65,450.9 363.975,450.0469 Q363.3,449.1844 363.3,447.4125 Q363.3,445.9125 364.0125,444.9 Q364.725,443.8875 365.9625,443.8875 Q366.2344,443.8875 366.4969,443.8875 Q366.7594,443.8875 366.9469,443.8875 Q367.0969,443.8875 367.1906,443.8875 Q367.2938,443.8875 367.5375,443.8875 L367.9594,446.1 L367.3219,446.1 Q367.0594,445.4437 366.7125,445.1719 Q366.375,444.9 365.8219,444.9 Q365.1281,444.9 364.7156,445.6125 Q364.3125,446.3156 364.3125,447.4125 Q364.3125,448.6219 364.6219,449.2594 Q364.9406,449.8875 365.7844,449.8875 Q366.3375,449.8875 366.7219,449.55 Q367.1156,449.2031 367.3219,448.3688 L367.9406,448.6781 Q367.7063,449.7281 367.1438,450.3187 Q366.5813,450.9 365.8125,450.9 Z "/><text fill="#000000" font-family="sans-serif" font-size="7.2" lengthAdjust="spacingAndGlyphs" textLength="112.8" x="374.4" y="450.6346">ImplementedEntityASpaceHandler</text><line style="stroke: #A80036; stroke-width: 0.8999999999999999;" x1="357.6" x2="488.4" y1="456.9" y2="456.9"/><line style="stroke: #A80036; stroke-width: 0.8999999999999999;" x1="357.6" x2="488.4" y1="461.7" y2="461.7"/><ellipse cx="363.6" cy="468.3" fill="#84BE84" rx="1.8" ry="1.8" style="stroke: #038048; stroke-width: 0.6;"/><text fill="#000000" font-family="sans-serif" font-size="6.6" lengthAdjust="spacingAndGlyphs" textLength="61.8" x="369" y="471.6636">save(EntityA entityA)</text><!--MD5=[de374c43ebc71837e168e6acadf5e812]
class EntityAAPI--><rect fill="#FEFECE" filter="url(#fuz352p654lx9)" height="28.8" id="EntityAAPI" style="stroke: #A80036; stroke-width: 0.8999999999999999;" width="51.6" x="58.2" y="46.8"/><ellipse cx="67.2" cy="56.4" fill="#ADD1B2" rx="6.6" ry="6.6" style="stroke: #A80036; stroke-width: 0.6;"/><path d="M67.0125,60 Q65.85,60 65.175,59.1469 Q64.5,58.2844 64.5,56.5125 Q64.5,55.0125 65.2125,54 Q65.925,52.9875 67.1625,52.9875 Q67.4344,52.9875 67.6969,52.9875 Q67.9594,52.9875 68.1469,52.9875 Q68.2969,52.9875 68.3906,52.9875 Q68.4937,52.9875 68.7375,52.9875 L69.1594,55.2 L68.5219,55.2 Q68.2594,54.5437 67.9125,54.2719 Q67.575,54 67.0219,54 Q66.3281,54 65.9156,54.7125 Q65.5125,55.4156 65.5125,56.5125 Q65.5125,57.7219 65.8219,58.3594 Q66.1406,58.9875 66.9844,58.9875 Q67.5375,58.9875 67.9219,58.65 Q68.3156,58.3031 68.5219,57.4688 L69.1406,57.7781 Q68.9063,58.8281 68.3438,59.4187 Q67.7813,60 67.0125,60 Z "/><text fill="#000000" font-family="sans-serif" font-size="7.2" lengthAdjust="spacingAndGlyphs" textLength="32.4" x="75.6" y="59.7346">EntityAAPI</text><line style="stroke: #A80036; stroke-width: 0.8999999999999999;" x1="58.8" x2="109.2" y1="66" y2="66"/><line style="stroke: #A80036; stroke-width: 0.8999999999999999;" x1="58.8" x2="109.2" y1="70.8" y2="70.8"/><!--MD5=[5ca6d5e321ce99527706eb467b75fdd9]
reverse link EntityIdentity to EntitySpace--><path d="M898.512,495.5766 C913.062,527.1006 933.036,570.3822 944.256,594.6894 " fill="none" id="EntityIdentity&lt;-EntitySpace" style="stroke: #A80036; stroke-width: 0.6;"/><polygon fill="none" points="894.642,497.2074,893.424,484.5516,902.268,493.6872,894.642,497.2074" style="stroke: #A80036; stroke-width: 0.6;"/><!--MD5=[ae4c6fac407da5680cf13bc9551c63c1]
reverse link EntityIdentity to EntityWithSpace--><path d="M863.136,495.4698 C850.974,521.8248 834.996,556.4364 823.524,581.2998 " fill="none" id="EntityIdentity&lt;-EntityWithSpace" style="stroke: #A80036; stroke-width: 0.6;"/><polygon fill="none" points="859.332,493.6872,868.176,484.5516,866.958,497.2074,859.332,493.6872" style="stroke: #A80036; stroke-width: 0.6;"/><!--MD5=[a874d8688a85efcf9fe0e02ae4cda5b6]
reverse link EntitySpace to EntityASpace--><path d="M922.044,640.5528 C913.548,647.3598 904.194,654.4914 895.2,660.6 C746.148,761.8308 554.4822,861.4824 479.0058,899.6292 " fill="none" id="EntitySpace&lt;-EntityASpace" style="stroke: #A80036; stroke-width: 0.6;"/><polygon fill="none" points="919.59,637.1328,931.542,632.7924,924.906,643.6374,919.59,637.1328" style="stroke: #A80036; stroke-width: 0.6;"/><!--MD5=[428725443329af17fe4e4d58b650dc82]
reverse link EntityWithSpace to EntityA--><path d="M721.416,643.9968 C655.794,666.2256 567.8622,696.0078 511.4094,715.1292 " fill="none" id="EntityWithSpace&lt;-EntityA" style="stroke: #A80036; stroke-width: 0.6;"/><polygon fill="none" points="720.276,639.9504,732.984,640.0788,722.97,647.9064,720.276,639.9504" style="stroke: #A80036; stroke-width: 0.6;"/><!--MD5=[104100df1dce1ca6c8f61d2edf3fa3a7]
reverse link EntityAType to EntityATypeEnum--><path d="M348.2958,854.5404 C349.5546,866.7918 351.039,881.2392 352.251,893.0364 " fill="none" id="EntityAType&lt;-EntityATypeEnum" style="stroke: #A80036; stroke-width: 0.6;"/><polygon fill="#A80036" points="347.4864,846.6636,345.4669,850.49,348.2223,853.8259,350.2418,849.9995,347.4864,846.6636" style="stroke: #A80036; stroke-width: 0.6;"/><!--MD5=[be8c93dbde7e0876680226add46d5ed3]
reverse link EntityAType to EntityATypeName--><path d="M321.2658,852.3054 C305.136,868.2174 284.5314,888.5436 271.0152,901.8774 " fill="none" id="EntityAType&lt;-EntityATypeName" style="stroke: #A80036; stroke-width: 0.6;"/><polygon fill="#A80036" points="326.9844,846.6636,322.7361,847.4834,321.8589,851.7202,326.1072,850.9004,326.9844,846.6636" style="stroke: #A80036; stroke-width: 0.6;"/><!--MD5=[8081032dc40186b886aaf74b9dbd3593]
reverse link EntityA to EntityAType--><path d="M417.8736,766.6746 C401.0856,780.7104 381.8814,796.7664 367.4904,808.7982 " fill="none" id="EntityA&lt;-EntityAType" style="stroke: #A80036; stroke-width: 0.6;"/><polygon fill="#A80036" points="423.936,761.6064,419.6347,762.0741,418.4121,766.2244,422.7134,765.7567,423.936,761.6064" style="stroke: #A80036; stroke-width: 0.6;"/><text fill="#000000" font-family="sans-serif" font-size="7.8" lengthAdjust="spacingAndGlyphs" textLength="39" x="401.4" y="788.9388">具象化依据</text><!--MD5=[40a83c9ea2bf5261def3ba1122804393]
reverse link EntityA to EntityASpace--><path d="M453.6954,769.5042 C451.8696,806.1444 449.0268,863.19 447.4842,894.1422 " fill="none" id="EntityA&lt;-EntityASpace" style="stroke: #A80036; stroke-width: 0.6;"/><polygon fill="#A80036" points="454.0914,761.5608,451.5152,765.0369,453.733,768.7519,456.3092,765.2758,454.0914,761.5608" style="stroke: #A80036; stroke-width: 0.6;"/><text fill="#000000" font-family="sans-serif" font-size="7.8" lengthAdjust="spacingAndGlyphs" textLength="39" x="452.4" y="831.5388">抽象化载体</text><!--MD5=[51039b2021ed5e0a138de992b37bc0b4]
reverse link EntityASpace to ImplementedEntityASpace--><path d="M491.1642,916.5 C511.0782,916.5 534.6726,916.5 555.4554,916.5 " fill="none" id="EntityASpace&lt;-ImplementedEntityASpace" style="stroke: #A80036; stroke-width: 0.6;"/><polygon fill="none" points="490.9884,920.7,478.9884,916.5,490.9884,912.3,490.9884,920.7" style="stroke: #A80036; stroke-width: 0.6;"/><text fill="#000000" font-family="sans-serif" font-size="7.8" lengthAdjust="spacingAndGlyphs" textLength="54.6" x="489.9" y="912.8388">具象化载体实例</text><!--MD5=[7081cdce0f044b6e930c56b8e9e9a197]
link repository to domain--><path d="M281.3798,616.2017 C281.2478,616.2537 281.1133,616.3069 280.9765,616.3612 C280.7029,616.4698 280.42,616.5829 280.1281,616.7005 C278.9603,617.1708 277.6481,617.713 276.2132,618.3266 C270.4735,620.7811 262.7695,624.3797 254.482,629.1035 C237.9069,638.5512 218.9976,652.5 208.8,670.8 C207.9551,672.3163 207.1959,673.8856 206.5152,675.4957 C206.1748,676.3008 205.8541,677.116 205.552,677.9399 C205.401,678.3518 205.2547,678.766 205.1129,679.182 C205.042,679.3901 204.9722,679.5986 204.9036,679.8076 C204.8693,679.9121 204.8352,680.0167 204.8015,680.1215 " fill="none" id="repository-&gt;domain" style="stroke: #A80036; stroke-width: 0.6; stroke-dasharray: 7.0,7.0;"/><polygon fill="#A80036" points="204.8015,680.1215,208.7423,675.7181,205.7218,677.2661,204.1737,674.2456,204.8015,680.1215" style="stroke: #A80036; stroke-width: 0.6;"/><!--MD5=[e782b1dac6f5798a56d57430ae13489b]
reverse link ApplicationContextAware to EntityASpaceHandlerHolder--><path d="M273,263.628 C273,273.168 273,283.752 273,292.482 " fill="none" id="ApplicationContextAware&lt;-EntityASpaceHandlerHolder" style="stroke: #A80036; stroke-width: 0.6; stroke-dasharray: 7.0,7.0;"/><polygon fill="none" points="268.8,263.538,273,251.538,277.2,263.538,268.8,263.538" style="stroke: #A80036; stroke-width: 0.6;"/><!--MD5=[de0ce802691ce3a26e5ca94f72d7601a]
reverse link EntityASpaceHandlerHolder to EntityATypeSelector--><path d="M377.4942,311.4 C441.7062,311.4 520.4628,311.4 567.7554,311.4 " fill="none" id="EntityASpaceHandlerHolder&lt;-EntityATypeSelector" style="stroke: #A80036; stroke-width: 0.6;"/><polygon fill="#A80036" points="374.4474,311.4,379.8474,313.8,377.4474,311.4,379.8474,309,374.4474,311.4" style="stroke: #A80036; stroke-width: 0.6;"/><text fill="#000000" font-family="sans-serif" font-size="7.8" lengthAdjust="spacingAndGlyphs" textLength="39" x="451.65" y="260.9388">执行者收集</text><path d="M387.75,266.2526 L387.75,304.0526 L552.15,304.0526 L552.15,272.2526 L546.15,266.2526 L387.75,266.2526 " fill="#FBFB77" filter="url(#fuz352p654lx9)" style="stroke: #A80036; stroke-width: 0.6;"/><path d="M546.15,266.2526 L546.15,272.2526 L552.15,272.2526 L546.15,266.2526 " fill="#FBFB77" style="stroke: #A80036; stroke-width: 0.6;"/><text fill="#000000" font-family="sans-serif" font-size="7.8" lengthAdjust="spacingAndGlyphs" textLength="41.4" x="391.35" y="278.1914">程序启动后:</text><text fill="#000000" font-family="sans-serif" font-size="7.8" lengthAdjust="spacingAndGlyphs" textLength="15.6" x="391.35" y="288.844">通过</text><text fill="#000000" font-family="sans-serif" font-size="7.8" font-weight="bold" lengthAdjust="spacingAndGlyphs" textLength="84.6" x="409.35" y="288.844">@EntityATypeSelector</text><text fill="#000000" font-family="sans-serif" font-size="7.8" lengthAdjust="spacingAndGlyphs" textLength="15.6" x="496.35" y="288.844">注解</text><text fill="#000000" font-family="sans-serif" font-size="7.8" lengthAdjust="spacingAndGlyphs" textLength="151.8" x="391.35" y="299.4967">收集 对应类型的 EntityASpaceHandler 实现</text><!--MD5=[5a6eb27d8cce8b5bc7e02d7052f32d49]
reverse link EntityASpaceHandlerHolder to EntityASpaceHandler--><path d="M266.6292,333.534 C258.2706,361.788 243.7416,410.9028 235.8612,437.5404 " fill="none" id="EntityASpaceHandlerHolder&lt;-EntityASpaceHandler" style="stroke: #A80036; stroke-width: 0.6;"/><polygon fill="#A80036" points="267.5178,330.528,263.6757,335.0178,266.6611,333.4031,268.2758,336.3885,267.5178,330.528" style="stroke: #A80036; stroke-width: 0.6;"/><text fill="#000000" font-family="sans-serif" font-size="7.8" lengthAdjust="spacingAndGlyphs" textLength="39" x="311.7" y="357.8388">执行者定义</text><path d="M264.6,363.1526 L264.6,390.1526 L395.4,390.1526 L395.4,369.1526 L389.4,363.1526 L264.6,363.1526 " fill="#FBFB77" filter="url(#fuz352p654lx9)" style="stroke: #A80036; stroke-width: 0.6;"/><path d="M389.4,363.1526 L389.4,369.1526 L395.4,369.1526 L389.4,363.1526 " fill="#FBFB77" style="stroke: #A80036; stroke-width: 0.6;"/><text fill="#000000" font-family="sans-serif" font-size="7.8" lengthAdjust="spacingAndGlyphs" textLength="25.8" x="268.2" y="375.0914">执行时:</text><text fill="#000000" font-family="sans-serif" font-size="7.8" lengthAdjust="spacingAndGlyphs" textLength="15.6" x="268.2" y="385.744">通过</text><text fill="#000000" font-family="sans-serif" font-size="7.8" font-weight="bold" lengthAdjust="spacingAndGlyphs" textLength="22.2" x="286.2" y="385.744">select</text><text fill="#000000" font-family="sans-serif" font-size="7.8" lengthAdjust="spacingAndGlyphs" textLength="75.6" x="310.8" y="385.744">方法调用响应 Handler</text><!--MD5=[9b616651c4b1be3c775ca2202494c989]
link EntityASpaceHandler to ext.handler--><path d="M275.184,456.6 C288.6753,456.6 302.8814,456.6 314.1677,456.6 C319.8109,456.6 324.7242,456.6 328.4532,456.6 C329.3855,456.6 330.2437,456.6 331.0209,456.6 C331.0694,456.6 331.1177,456.6 331.1656,456.6 " fill="none" id="EntityASpaceHandler-&gt;ext.handler" style="stroke: #A80036; stroke-width: 0.6;"/><polygon fill="#FFFFFF" points="331.1656,456.6,319.7656,452.4,319.7656,460.8,331.1656,456.6" style="stroke: #A80036; stroke-width: 0.6;"/><text fill="#000000" font-family="sans-serif" font-size="7.8" lengthAdjust="spacingAndGlyphs" textLength="39" x="285.942" y="452.9388">具体执行者</text><!--MD5=[39b1ce0ca2e69d4ac7c583b3e61df27f]
link ImplementedEntityASpaceHandler to repository--><path d="M414.3924,475.5678 C403.548,496.5426 382.8552,530.1846 354.6,547.5 C332.6568,560.9472 316.0284,539.736 297.6,557.7 C295.3813,559.8629 293.536,562.3337 292.0058,565.0041 C291.6232,565.6717 291.2604,566.3518 290.9163,567.0426 " fill="none" id="ImplementedEntityASpaceHandler-&gt;repository" style="stroke: #A80036; stroke-width: 0.6; stroke-dasharray: 7.0,7.0;"/><polygon fill="#A80036" points="290.9163,567.0426,295.472,563.2789,292.2538,564.3572,291.1754,561.139,290.9163,567.0426" style="stroke: #A80036; stroke-width: 0.6;"/><!--MD5=[bea94e9a774a78fd58ca900e0867735c]
link EntityAService to handler--><path d="M136.1064,237 C139.5669,237 143.0276,237 146.4883,237 C148.2186,237 149.949,237 151.6794,237 C151.8957,237 152.112,237 152.3283,237 " fill="none" id="EntityAService-&gt;handler" style="stroke: #A80036; stroke-width: 0.6; stroke-dasharray: 7.0,7.0;"/><polygon fill="#A80036" points="152.3283,237,146.9283,234.6,149.3283,237,146.9283,239.4,152.3283,237" style="stroke: #A80036; stroke-width: 0.6;"/><!--MD5=[079a0d94123e5e4d09633f647e0ddf3e]
link o.w.o.api.symbol to service--><path d="M37.2,90.6206 C37.2,90.8776 37.2,91.1357 37.2,91.3951 C37.2,91.9139 37.2,92.4376 37.2,92.9661 C37.2,94.0231 37.2,95.0991 37.2,96.1929 C37.2,98.3806 37.2,100.6394 37.2,102.9592 C37.2,107.5988 37.2,112.4824 37.2,117.5286 C37.2,127.621 37.2,138.3639 37.2,149.1067 C37.2,151.7925 37.2,154.4781 37.2,157.1537 C37.2,157.3209 37.2,157.4881 37.2,157.6552 " fill="none" id="o.w.o.api.symbol-&gt;service" style="stroke: #A80036; stroke-width: 0.6; stroke-dasharray: 7.0,7.0;"/><polygon fill="#A80036" points="37.2,157.6552,39.6,152.2552,37.2,154.6552,34.8,152.2552,37.2,157.6552" style="stroke: #A80036; stroke-width: 0.6;"/><text fill="#000000" font-family="sans-serif" font-size="7.8" lengthAdjust="spacingAndGlyphs" textLength="85.8" x="37.8" y="113.9388">调用服务层进行接口响应</text><!--MD5=[728cee5d4dff681ab3fb9cc5105de030]
@startuml


package o.w.o.server.io.db {
    class EntityIdentity {
      String id
      Date cTime
      Date uTime
    }
    class EntityWithSpace<EntityType, EntitySpace> {
     + EntityType type
     - - -
     + EntitySpace space
     + String spaceId
     + Json spaceContent
    }
    class EntitySpace<EntityType> {
     + EntityType type
    }

    EntityIdentity <|- - EntitySpace
    EntityIdentity <|- - EntityWithSpace
}

package o.w.o.resource.symbol {
  package domain {

    class EntityAType {
      + EntityAType from(EntityATypeEnum type)
    }

    enum EntityATypeEnum {
      Integer id;
      String typeName;
    }

    class EntityATypeName {
    }

    abstract class EntityASpace <<EntityAType>> {
     + EntityAType type
    }
    EntitySpace <|- - EntityASpace

    class EntityA<<EntityAType, EntityASpace>> {
     + EntityAType type
     + EntityASpace space
    }
    EntityWithSpace <|- - EntityA

    package ext.space {
     class ImplementedEntityASpace {
       EntityAType type = EntityAType.X
     }
    }

    EntityAType *- - EntityATypeEnum
    EntityAType *- - EntityATypeName

    EntityA *- - EntityAType : 具象化依据
    EntityA *- - - EntityASpace : 抽象化载体

    EntityASpace <|- ImplementedEntityASpace : 具象化载体实例
  }

  package repository {
    interface EntityARepository {
      + save(EntityA entityA)
    }
    interface ImplementedEntityASpaceRepository {
      + save(ImplementedEntityASpace implementedEntityASpace)
    }
  }

  repository ..> domain

  package service {
    package handler {
      package ext.handler {
       class ImplementedEntityASpaceHandler {
         + save(EntityA entityA)
       }
      }
      abstract EntityASpaceHandler {
        + save(EntityA entityA)
      }
      annotation EntityATypeSelector {}
      class EntityASpaceHandlerHolder implements ApplicationContextAware {
        + Optional<EntityASpaceHandler> select(EntityAType entityAType)
      }
    }

    class EntityAService {
      + save(EntityA entityA)
    }

    EntityASpaceHandlerHolder <- EntityATypeSelector : 执行者收集
    note on link
    程序启动后:
    通过 <b>@EntityATypeSelector</b> 注解
    收集 对应类型的 EntityASpaceHandler 实现
    end note
    EntityASpaceHandlerHolder <- - EntityASpaceHandler : 执行者定义
    note on link
    执行时:
    通过 <b>select</b> 方法调用相应 Handler
    end note

    EntityASpaceHandler -|> ext.handler : 具体执行者

    ImplementedEntityASpaceHandler ..> repository
    EntityAService .> handler
  }
}

package o.w.o.api.symbol <<Cloud>> #Gold {
  class EntityAAPI{}
}

o.w.o.api.symbol ..> service : 调用服务层进行接口响应
@enduml

PlantUML version 1.2020.09(Sun May 10 18:51:06 CST 2020)
(GPL source distribution)
Java Runtime: OpenJDK Runtime Environment
JVM: OpenJDK 64-Bit Server VM
Java Version: 11.0.7+10-b765.53
Operating System: Windows 10
Default Encoding: GBK
Language: zh
Country: CN
--></g></svg>