<?xml version="1.0" encoding="UTF-8" standalone="no"?><svg xmlns="http://www.w3.org/2000/svg" xmlns:xlink="http://www.w3.org/1999/xlink" contentScriptType="application/ecmascript" contentStyleType="text/css" height="557px" preserveAspectRatio="none" style="width:397px;height:557px;" version="1.1" viewBox="0 0 397 557" width="397px" zoomAndPan="magnify"><defs><filter height="300%" id="f1nzdlu8uyeu6v" width="300%" x="-1" y="-1"><feGaussianBlur result="blurOut" stdDeviation="2.0"/><feColorMatrix in="blurOut" result="blurOut2" type="matrix" values="0 0 0 0 0 0 0 0 0 0 0 0 0 0 0 0 0 0 .4 0"/><feOffset dx="4.0" dy="4.0" in="blurOut2" result="blurOut3"/><feBlend in="SourceGraphic" in2="blurOut3" mode="normal"/></filter></defs><g><text fill="#888888" font-family="sans-serif" font-size="10" lengthAdjust="spacingAndGlyphs" textLength="30" x="355" y="11.46">烛火录</text><text fill="#000000" font-family="sans-serif" font-size="18" lengthAdjust="spacingAndGlyphs" textLength="126" x="129.5" y="34.2852">规范化接口响应</text><!--MD5=[cf15213fc0f48fa0384b74b038d8fd3e]
cluster o.w.o.server.io.api--><polygon fill="#FFFFFF" filter="url(#f1nzdlu8uyeu6v)" points="22,62.2402,158,62.2402,165,87.3604,351,87.3604,351,545.2402,22,545.2402,22,62.2402" style="stroke: #000000; stroke-width: 1.5;"/><line style="stroke: #000000; stroke-width: 1.5;" x1="22" x2="165" y1="87.3604" y2="87.3604"/><text fill="#000000" font-family="sans-serif" font-size="14" font-weight="bold" lengthAdjust="spacingAndGlyphs" textLength="130" x="26" y="80.2842">o.w.o.server.io.api</text><!--MD5=[68767c78be08caa96780c014af9fbeaa]
class API--><rect fill="#FEFECE" filter="url(#f1nzdlu8uyeu6v)" height="108.0918" id="API" style="stroke: #A80036; stroke-width: 1.5;" width="110" x="126" y="100.2402"/><ellipse cx="168" cy="116.2402" fill="#ADD1B2" rx="11" ry="11" style="stroke: #A80036; stroke-width: 1.0;"/><path d="M167.6875,122.2402 Q165.75,122.2402 164.625,120.8184 Q163.5,119.3809 163.5,116.4277 Q163.5,113.9277 164.6875,112.2402 Q165.875,110.5527 167.9375,110.5527 Q168.3906,110.5527 168.8281,110.5527 Q169.2656,110.5527 169.5781,110.5527 Q169.8281,110.5527 169.9844,110.5527 Q170.1563,110.5527 170.5625,110.5527 L171.2656,114.2402 L170.2031,114.2402 Q169.7656,113.1465 169.1875,112.6934 Q168.625,112.2402 167.7031,112.2402 Q166.5469,112.2402 165.8594,113.4277 Q165.1875,114.5996 165.1875,116.4277 Q165.1875,118.4434 165.7031,119.5059 Q166.2344,120.5527 167.6406,120.5527 Q168.5625,120.5527 169.2031,119.9902 Q169.8594,119.4121 170.2031,118.0215 L171.2344,118.5371 Q170.8438,120.2871 169.9063,121.2715 Q168.9688,122.2402 167.6875,122.2402 Z "/><text fill="#000000" font-family="sans-serif" font-size="12" lengthAdjust="spacingAndGlyphs" textLength="18" x="188" y="121.7979">API</text><line style="stroke: #A80036; stroke-width: 1.5;" x1="127" x2="235" y1="132.2402" y2="132.2402"/><ellipse cx="137" cy="143.2402" fill="none" rx="3" ry="3" style="stroke: #038048; stroke-width: 1.0;"/><text fill="#000000" font-family="sans-serif" font-size="11" lengthAdjust="spacingAndGlyphs" textLength="84" x="146" y="148.8462">Boolean success</text><ellipse cx="137" cy="158.2632" fill="none" rx="3" ry="3" style="stroke: #038048; stroke-width: 1.0;"/><text fill="#000000" font-family="sans-serif" font-size="11" lengthAdjust="spacingAndGlyphs" textLength="60" x="146" y="163.8691">Integer code</text><ellipse cx="137" cy="173.2861" fill="none" rx="3" ry="3" style="stroke: #038048; stroke-width: 1.0;"/><text fill="#000000" font-family="sans-serif" font-size="11" lengthAdjust="spacingAndGlyphs" textLength="75" x="146" y="178.8921">String message</text><ellipse cx="137" cy="188.3091" fill="none" rx="3" ry="3" style="stroke: #038048; stroke-width: 1.0;"/><text fill="#000000" font-family="sans-serif" font-size="11" lengthAdjust="spacingAndGlyphs" textLength="79" x="146" y="193.915">String timestamp</text><line style="stroke: #A80036; stroke-width: 1.5;" x1="127" x2="235" y1="200.332" y2="200.332"/><!--MD5=[a5642a1c6aa0b495579d92c3fd2f5242]
class APIResult--><rect fill="#FEFECE" filter="url(#f1nzdlu8uyeu6v)" height="63.0229" id="APIResult" style="stroke: #A80036; stroke-width: 1.5;" width="98" x="64" y="275.7402"/><ellipse cx="84.4" cy="291.7402" fill="#ADD1B2" rx="11" ry="11" style="stroke: #A80036; stroke-width: 1.0;"/><path d="M84.0875,297.7402 Q82.15,297.7402 81.025,296.3184 Q79.9,294.8809 79.9,291.9277 Q79.9,289.4277 81.0875,287.7402 Q82.275,286.0527 84.3375,286.0527 Q84.7906,286.0527 85.2281,286.0527 Q85.6656,286.0527 85.9781,286.0527 Q86.2281,286.0527 86.3844,286.0527 Q86.5563,286.0527 86.9625,286.0527 L87.6656,289.7402 L86.6031,289.7402 Q86.1656,288.6465 85.5875,288.1934 Q85.025,287.7402 84.1031,287.7402 Q82.9469,287.7402 82.2594,288.9277 Q81.5875,290.0996 81.5875,291.9277 Q81.5875,293.9434 82.1031,295.0059 Q82.6344,296.0527 84.0406,296.0527 Q84.9625,296.0527 85.6031,295.4902 Q86.2594,294.9121 86.6031,293.5215 L87.6344,294.0371 Q87.2438,295.7871 86.3063,296.7715 Q85.3688,297.7402 84.0875,297.7402 Z "/><text fill="#000000" font-family="sans-serif" font-size="12" lengthAdjust="spacingAndGlyphs" textLength="54" x="99.6" y="297.2979">APIResult</text><line style="stroke: #A80036; stroke-width: 1.5;" x1="65" x2="161" y1="307.7402" y2="307.7402"/><ellipse cx="75" cy="318.7402" fill="none" rx="3" ry="3" style="stroke: #038048; stroke-width: 1.0;"/><text fill="#000000" font-family="sans-serif" font-size="11" lengthAdjust="spacingAndGlyphs" textLength="72" x="84" y="324.3462">Object payload</text><line style="stroke: #A80036; stroke-width: 1.5;" x1="65" x2="161" y1="330.7632" y2="330.7632"/><!--MD5=[6a494c20d032ff54e1efa92c1369bc7b]
class Page--><rect fill="#FEFECE" filter="url(#f1nzdlu8uyeu6v)" height="123.1147" id="Page" style="stroke: #A80036; stroke-width: 1.5;" width="112" x="223" y="406.2402"/><ellipse cx="256" cy="422.2402" fill="#ADD1B2" rx="11" ry="11" style="stroke: #A80036; stroke-width: 1.0;"/><path d="M255.6875,428.2402 Q253.75,428.2402 252.625,426.8184 Q251.5,425.3809 251.5,422.4277 Q251.5,419.9277 252.6875,418.2402 Q253.875,416.5527 255.9375,416.5527 Q256.3906,416.5527 256.8281,416.5527 Q257.2656,416.5527 257.5781,416.5527 Q257.8281,416.5527 257.9844,416.5527 Q258.1563,416.5527 258.5625,416.5527 L259.2656,420.2402 L258.2031,420.2402 Q257.7656,419.1465 257.1875,418.6934 Q256.625,418.2402 255.7031,418.2402 Q254.5469,418.2402 253.8594,419.4277 Q253.1875,420.5996 253.1875,422.4277 Q253.1875,424.4434 253.7031,425.5059 Q254.2344,426.5527 255.6406,426.5527 Q256.5625,426.5527 257.2031,425.9902 Q257.8594,425.4121 258.2031,424.0215 L259.2344,424.5371 Q258.8438,426.2871 257.9063,427.2715 Q256.9688,428.2402 255.6875,428.2402 Z "/><text fill="#000000" font-family="sans-serif" font-size="12" lengthAdjust="spacingAndGlyphs" textLength="29" x="274" y="427.7979">Page</text><rect fill="#FFFFFF" height="18.3887" style="stroke: #000000; stroke-width: 1.0; stroke-dasharray: 2.0,2.0;" width="9" x="329" y="403.2402"/><text fill="#000000" font-family="sans-serif" font-size="12" font-style="italic" lengthAdjust="spacingAndGlyphs" textLength="7" x="330" y="417.9922">T</text><line style="stroke: #A80036; stroke-width: 1.5;" x1="224" x2="334" y1="438.2402" y2="438.2402"/><ellipse cx="234" cy="449.2402" fill="none" rx="3" ry="3" style="stroke: #038048; stroke-width: 1.0;"/><text fill="#000000" font-family="sans-serif" font-size="11" lengthAdjust="spacingAndGlyphs" textLength="51" x="243" y="454.8462">List&lt;T&gt; list</text><ellipse cx="234" cy="464.2632" fill="none" rx="3" ry="3" style="stroke: #038048; stroke-width: 1.0;"/><text fill="#000000" font-family="sans-serif" font-size="11" lengthAdjust="spacingAndGlyphs" textLength="56" x="243" y="469.8691">Integer size</text><ellipse cx="234" cy="479.2861" fill="none" rx="3" ry="3" style="stroke: #038048; stroke-width: 1.0;"/><text fill="#000000" font-family="sans-serif" font-size="11" lengthAdjust="spacingAndGlyphs" textLength="60" x="243" y="484.8921">Integer page</text><ellipse cx="234" cy="494.3091" fill="none" rx="3" ry="3" style="stroke: #038048; stroke-width: 1.0;"/><text fill="#000000" font-family="sans-serif" font-size="11" lengthAdjust="spacingAndGlyphs" textLength="86" x="243" y="499.915">Integer totalPages</text><ellipse cx="234" cy="509.332" fill="none" rx="3" ry="3" style="stroke: #038048; stroke-width: 1.0;"/><text fill="#000000" font-family="sans-serif" font-size="11" lengthAdjust="spacingAndGlyphs" textLength="77" x="243" y="514.938">Integer totalSize</text><line style="stroke: #A80036; stroke-width: 1.5;" x1="224" x2="334" y1="521.355" y2="521.355"/><!--MD5=[4059761e6ab68fc20ab034f8e18afeaa]
class APIPageableResult--><rect fill="#FEFECE" filter="url(#f1nzdlu8uyeu6v)" height="63.0229" id="APIPageableResult" style="stroke: #A80036; stroke-width: 1.5;" width="150" x="38" y="436.2402"/><ellipse cx="53" cy="452.2402" fill="#ADD1B2" rx="11" ry="11" style="stroke: #A80036; stroke-width: 1.0;"/><path d="M52.6875,458.2402 Q50.75,458.2402 49.625,456.8184 Q48.5,455.3809 48.5,452.4277 Q48.5,449.9277 49.6875,448.2402 Q50.875,446.5527 52.9375,446.5527 Q53.3906,446.5527 53.8281,446.5527 Q54.2656,446.5527 54.5781,446.5527 Q54.8281,446.5527 54.9844,446.5527 Q55.1563,446.5527 55.5625,446.5527 L56.2656,450.2402 L55.2031,450.2402 Q54.7656,449.1465 54.1875,448.6934 Q53.625,448.2402 52.7031,448.2402 Q51.5469,448.2402 50.8594,449.4277 Q50.1875,450.5996 50.1875,452.4277 Q50.1875,454.4434 50.7031,455.5059 Q51.2344,456.5527 52.6406,456.5527 Q53.5625,456.5527 54.2031,455.9902 Q54.8594,455.4121 55.2031,454.0215 L56.2344,454.5371 Q55.8438,456.2871 54.9063,457.2715 Q53.9688,458.2402 52.6875,458.2402 Z "/><text fill="#000000" font-family="sans-serif" font-size="12" lengthAdjust="spacingAndGlyphs" textLength="107" x="67" y="457.7979">APIPageableResult</text><rect fill="#FFFFFF" height="18.3887" style="stroke: #000000; stroke-width: 1.0; stroke-dasharray: 2.0,2.0;" width="9" x="182" y="433.2402"/><text fill="#000000" font-family="sans-serif" font-size="12" font-style="italic" lengthAdjust="spacingAndGlyphs" textLength="7" x="183" y="447.9922">T</text><line style="stroke: #A80036; stroke-width: 1.5;" x1="39" x2="187" y1="468.2402" y2="468.2402"/><ellipse cx="49" cy="479.2402" fill="none" rx="3" ry="3" style="stroke: #038048; stroke-width: 1.0;"/><text fill="#000000" font-family="sans-serif" font-size="11" lengthAdjust="spacingAndGlyphs" textLength="83" x="58" y="484.8462">Page&lt;T&gt; payload</text><line style="stroke: #A80036; stroke-width: 1.5;" x1="39" x2="187" y1="491.2632" y2="491.2632"/><!--MD5=[8d644a9a5deef3708d70f80acd0bac33]
class APIException--><rect fill="#FEFECE" filter="url(#f1nzdlu8uyeu6v)" height="78.0459" id="APIException" style="stroke: #A80036; stroke-width: 1.5;" width="103" x="197.5" y="268.2402"/><ellipse cx="212.5" cy="284.2402" fill="#ADD1B2" rx="11" ry="11" style="stroke: #A80036; stroke-width: 1.0;"/><path d="M212.1875,290.2402 Q210.25,290.2402 209.125,288.8184 Q208,287.3809 208,284.4277 Q208,281.9277 209.1875,280.2402 Q210.375,278.5527 212.4375,278.5527 Q212.8906,278.5527 213.3281,278.5527 Q213.7656,278.5527 214.0781,278.5527 Q214.3281,278.5527 214.4844,278.5527 Q214.6563,278.5527 215.0625,278.5527 L215.7656,282.2402 L214.7031,282.2402 Q214.2656,281.1465 213.6875,280.6934 Q213.125,280.2402 212.2031,280.2402 Q211.0469,280.2402 210.3594,281.4277 Q209.6875,282.5996 209.6875,284.4277 Q209.6875,286.4434 210.2031,287.5059 Q210.7344,288.5527 212.1406,288.5527 Q213.0625,288.5527 213.7031,287.9902 Q214.3594,287.4121 214.7031,286.0215 L215.7344,286.5371 Q215.3438,288.2871 214.4063,289.2715 Q213.4688,290.2402 212.1875,290.2402 Z "/><text fill="#000000" font-family="sans-serif" font-size="12" lengthAdjust="spacingAndGlyphs" textLength="71" x="226.5" y="289.7979">APIException</text><line style="stroke: #A80036; stroke-width: 1.5;" x1="198.5" x2="299.5" y1="300.2402" y2="300.2402"/><ellipse cx="208.5" cy="311.2402" fill="none" rx="3" ry="3" style="stroke: #038048; stroke-width: 1.0;"/><text fill="#000000" font-family="sans-serif" font-size="11" lengthAdjust="spacingAndGlyphs" textLength="52" x="217.5" y="316.8462">String path</text><ellipse cx="208.5" cy="326.2632" fill="none" rx="3" ry="3" style="stroke: #038048; stroke-width: 1.0;"/><text fill="#000000" font-family="sans-serif" font-size="11" lengthAdjust="spacingAndGlyphs" textLength="56" x="217.5" y="331.8691">List[] errors</text><line style="stroke: #A80036; stroke-width: 1.5;" x1="198.5" x2="299.5" y1="338.2861" y2="338.2861"/><!--MD5=[9c60e5edf141c73d3f9e15cf0ef0973f]
reverse link API to APIResult--><path d="M148.783,226.7812 C141.073,243.9022 133.24,261.2962 126.876,275.4272 " fill="none" id="API&lt;-APIResult" style="stroke: #A80036; stroke-width: 1.0;"/><polygon fill="none" points="142.431,223.8392,157.026,208.4772,155.196,229.5872,142.431,223.8392" style="stroke: #A80036; stroke-width: 1.0;"/><!--MD5=[69702d6042f3e1a26c1da38d3f2c1572]
reverse link APIResult to APIPageableResult--><path d="M113,359.1632 C113,384.4692 113,414.2132 113,436.0032 " fill="none" id="APIResult&lt;-APIPageableResult" style="stroke: #A80036; stroke-width: 1.0;"/><polygon fill="none" points="106,358.8002,113,338.8002,120,358.8002,106,358.8002" style="stroke: #A80036; stroke-width: 1.0;"/><!--MD5=[f5d7147e07016fbc1c60b67bf95fbe20]
link APIPageableResult to Page--><path d="M188.219,467.7402 C198.083,467.7402 207.948,467.7402 217.812,467.7402 " fill="none" id="APIPageableResult-&gt;Page" style="stroke: #A80036; stroke-width: 1.0;"/><polygon fill="#A80036" points="222.971,467.7402,213.971,463.7402,217.971,467.7402,213.971,471.7402,222.971,467.7402" style="stroke: #A80036; stroke-width: 1.0;"/><!--MD5=[c2229f04e46a3c344de2ac6c0b2881ab]
reverse link API to APIException--><path d="M213.284,226.9302 C219.7,241.1772 226.198,255.6052 231.86,268.1792 " fill="none" id="API&lt;-APIException" style="stroke: #A80036; stroke-width: 1.0;"/><polygon fill="none" points="206.804,229.5872,204.974,208.4772,219.569,223.8392,206.804,229.5872" style="stroke: #A80036; stroke-width: 1.0;"/><!--MD5=[4f98f490a3d27f082974f2b959a8f867]
@startuml

header 烛火录

title 规范化接口响应

package o.w.o.server.io.api {
  class API {
    + Boolean success
    + Integer code
    + String message
    + String timestamp
  }

  class APIResult extends API {
    + Object payload
  }

  class Page<T> {
    + List<T> list
    + Integer size
    + Integer page
    + Integer totalPages
    + Integer totalSize
  }

  class APIPageableResult<T> extends APIResult {
    + Page<T> payload
  }

  APIPageableResult -> Page

  class APIException extends API {
    + String path
    + List[] errors
  }
}

@enduml

PlantUML version 1.2020.09(Sun May 10 18:51:06 CST 2020)
(GPL source distribution)
Java Runtime: OpenJDK Runtime Environment
JVM: OpenJDK 64-Bit Server VM
Java Version: 11.0.7+10-b765.53
Operating System: Windows 10
Default Encoding: GBK
Language: zh
Country: CN
--></g></svg>