<?xml version="1.0" encoding="UTF-8" standalone="no"?><svg xmlns="http://www.w3.org/2000/svg" xmlns:xlink="http://www.w3.org/1999/xlink" contentScriptType="application/ecmascript" contentStyleType="text/css" height="1350px" preserveAspectRatio="none" style="width:2800px;height:1350px;" version="1.1" viewBox="0 0 2800 1350" width="2800px" zoomAndPan="magnify"><defs><filter height="300%" id="f1s8s94wxvzpz" width="300%" x="-1" y="-1"><feGaussianBlur result="blurOut" stdDeviation="2.0"/><feColorMatrix in="blurOut" result="blurOut2" type="matrix" values="0 0 0 0 0 0 0 0 0 0 0 0 0 0 0 0 0 0 .4 0"/><feOffset dx="4.0" dy="4.0" in="blurOut2" result="blurOut3"/><feBlend in="SourceGraphic" in2="blurOut3" mode="normal"/></filter></defs><g><!--MD5=[9b354ac78d9816af00f6e81900636e9a]
cluster o.w.o.server.io.db--><polygon fill="#FFFFFF" filter="url(#f1s8s94wxvzpz)" points="2019,449,2152,449,2159,474.1201,2496,474.1201,2496,702,2019,702,2019,449" style="stroke: #000000; stroke-width: 1.5;"/><line style="stroke: #000000; stroke-width: 1.5;" x1="2019" x2="2159" y1="474.1201" y2="474.1201"/><text fill="#000000" font-family="sans-serif" font-size="14" font-weight="bold" lengthAdjust="spacingAndGlyphs" textLength="127" x="2023" y="467.0439">o.w.o.server.io.db</text><!--MD5=[625fee6706e61dd7c5d358c370a7b82a]
cluster o.w.o.server.io.runner--><polygon fill="#FFFFFF" filter="url(#f1s8s94wxvzpz)" points="2520,449,2683,449,2690,474.1201,2778,474.1201,2778,718.5,2520,718.5,2520,449" style="stroke: #000000; stroke-width: 1.5;"/><line style="stroke: #000000; stroke-width: 1.5;" x1="2520" x2="2690" y1="474.1201" y2="474.1201"/><text fill="#000000" font-family="sans-serif" font-size="14" font-weight="bold" lengthAdjust="spacingAndGlyphs" textLength="157" x="2524" y="467.0439">o.w.o.server.io.runner</text><!--MD5=[0bd9a0e189b2de279a2994671fc493ba]
cluster o.w.o.resource.symbol--><polygon fill="#FFFFFF" filter="url(#f1s8s94wxvzpz)" points="22,209,186,209,193,234.1201,1995,234.1201,1995,1338,22,1338,22,209" style="stroke: #000000; stroke-width: 1.5;"/><line style="stroke: #000000; stroke-width: 1.5;" x1="22" x2="193" y1="234.1201" y2="234.1201"/><text fill="#000000" font-family="sans-serif" font-size="14" font-weight="bold" lengthAdjust="spacingAndGlyphs" textLength="158" x="26" y="227.0439">o.w.o.resource.symbol</text><!--MD5=[27f772719433d509ddbc20ff768eba08]
cluster domain--><polygon fill="#FFFFFF" filter="url(#f1s8s94wxvzpz)" points="1429,769.5,1486,769.5,1493,794.6201,1971,794.6201,1971,1314,1429,1314,1429,769.5" style="stroke: #000000; stroke-width: 1.5;"/><line style="stroke: #000000; stroke-width: 1.5;" x1="1429" x2="1493" y1="794.6201" y2="794.6201"/><text fill="#000000" font-family="sans-serif" font-size="14" font-weight="bold" lengthAdjust="spacingAndGlyphs" textLength="51" x="1433" y="787.5439">domain</text><!--MD5=[66961468a754f910770f9324ae1946e2]
cluster ext.space--><polygon fill="#FFFFFF" filter="url(#f1s8s94wxvzpz)" points="1698,1032,1772,1032,1779,1057.1201,1939,1057.1201,1939,1165,1698,1165,1698,1032" style="stroke: #000000; stroke-width: 1.5;"/><line style="stroke: #000000; stroke-width: 1.5;" x1="1698" x2="1779" y1="1057.1201" y2="1057.1201"/><text fill="#000000" font-family="sans-serif" font-size="14" font-weight="bold" lengthAdjust="spacingAndGlyphs" textLength="68" x="1702" y="1050.0439">ext.space</text><!--MD5=[bd0bd4c41e0e5269e37474fd45a6abb7]
cluster repository--><polygon fill="#FFFFFF" filter="url(#f1s8s94wxvzpz)" points="1243,792,1321,792,1328,817.1201,1405,817.1201,1405,909,1243,909,1243,792" style="stroke: #000000; stroke-width: 1.5;"/><line style="stroke: #000000; stroke-width: 1.5;" x1="1243" x2="1328" y1="817.1201" y2="817.1201"/><text fill="#000000" font-family="sans-serif" font-size="14" font-weight="bold" lengthAdjust="spacingAndGlyphs" textLength="72" x="1247" y="810.0439">repository</text><!--MD5=[7579d5565d2521d5936cec86ed3dadee]
cluster service--><polygon fill="#FFFFFF" filter="url(#f1s8s94wxvzpz)" points="46,255,105,255,112,280.1201,1219,280.1201,1219,973,46,973,46,255" style="stroke: #000000; stroke-width: 1.5;"/><line style="stroke: #000000; stroke-width: 1.5;" x1="46" x2="112" y1="280.1201" y2="280.1201"/><text fill="#000000" font-family="sans-serif" font-size="14" font-weight="bold" lengthAdjust="spacingAndGlyphs" textLength="53" x="50" y="273.0439">service</text><!--MD5=[5336d0432c5753478f8bb0248199b33b]
cluster handler--><polygon fill="#FFFFFF" filter="url(#f1s8s94wxvzpz)" points="208,301,268,301,275,326.1201,819,326.1201,819,949,208,949,208,301" style="stroke: #000000; stroke-width: 1.5;"/><line style="stroke: #000000; stroke-width: 1.5;" x1="208" x2="275" y1="326.1201" y2="326.1201"/><text fill="#000000" font-family="sans-serif" font-size="14" font-weight="bold" lengthAdjust="spacingAndGlyphs" textLength="54" x="212" y="319.0439">handler</text><!--MD5=[99247af6f1cdddd58dbb8bd2b98dca2c]
cluster ext.handler--><polygon fill="#FFFFFF" filter="url(#f1s8s94wxvzpz)" points="492,784,578,784,585,809.1201,779,809.1201,779,917,492,917,492,784" style="stroke: #000000; stroke-width: 1.5;"/><line style="stroke: #000000; stroke-width: 1.5;" x1="492" x2="585" y1="809.1201" y2="809.1201"/><text fill="#000000" font-family="sans-serif" font-size="14" font-weight="bold" lengthAdjust="spacingAndGlyphs" textLength="80" x="496" y="802.0439">ext.handler</text><!--MD5=[1c248d4b5f01cc8c7b958c8d64e9885d]
cluster o.w.o.api.symbol--><path d="M135.0072,40.9492 C138.4471,35.3937 143.0126,35.4027 146.634,40.7558 C149.6876,33.2916 155.335,32.7188 160.4503,38.6254 C162.8362,32.9686 168.0775,32.3953 171.8367,37.119 C175.9692,30.4542 181.0409,30.5831 185.1717,37.1208 C187.0775,32.3879 192.0844,30.1562 195.7719,35.1864 C200.3095,28.6501 204.3669,29.8943 208.4479,35.6569 C212.819,29.1415 219.512,29.6954 222.0067,37.4409 C226.7965,32.1326 231.4632,33.3476 233.9529,39.781 C238.1603,33.4753 243.2595,35.3833 246.5974,40.725 C255.0621,34.2526 261.0959,38.0509 264,47 C264.9393,46.2042 265.5384,46.5319 265.9174,47.582 C272.9184,49.9433 273.148,55.2775 267.6975,59.4987 C273.0816,62.3179 274.655,66.8852 268.8702,70.8576 C274.5795,72.5662 275.8344,76.3957 271.4355,80.7307 C277.9668,83.2591 278.4189,86.6063 273.6767,91.4843 C278.3538,95.8727 277.301,101.633 270.754,103.228 C276.4753,107.9567 274.7551,112.3246 268.645,114.919 C273.8277,119.2687 271.286,124.1123 266.0709,126.0595 C269.9873,134.1611 266.2976,141.4178 257,142 C258.3323,142.2939 258.4055,143.1544 257.6838,144.113 C254.3965,149.5391 250.2178,150.9947 245.8004,145.3231 C241.9394,151.0763 237.0145,151.5651 232.5195,146.072 C229.5109,151.5944 224.7432,153.7525 220.2649,147.6169 C217.6199,153.9822 212.7906,154.0012 208.9673,148.7643 C207.5167,155.528 201.4825,156.3576 197.1132,151.8278 C191.6639,157.8169 187.3689,155.4861 184.5554,149.1437 C181.2337,154.63 175.5742,154.5457 172.8653,148.5213 C167.6349,154.2798 162.5713,154.7166 159.2425,146.6479 C154.6362,152.5794 149.6261,150.8346 146.9328,144.6968 C136.6605,153.0643 126.9351,147.8815 127,135 C127.9611,134.5263 128.5487,134.8014 128.668,135.8955 C123.7596,133.5422 123.2682,129.695 127.0769,125.9474 C120.3933,123.0346 119.3759,118.7796 123.9357,113.1147 C118.5981,110.701 118.679,106.6215 122.7147,103.0686 C115.8777,101.38 115.4362,96.3775 119.5944,91.6771 C114.8467,86.8652 115.9549,83.3234 122.1556,81.1835 C116.8788,77.1531 117.8758,73.3009 123.2274,70.3191 C119.7382,66.1994 120.134,60.923 126.6108,60.1044 C118.1184,50.5119 122.6503,42.2997 134,40 C134.7083,39.8193 135.1461,40.2309 135.0072,40.9492 " fill="#FFD700" style="stroke: #000000; stroke-width: 1.5;"/><text fill="#000000" font-family="sans-serif" font-size="14" font-weight="bold" lengthAdjust="spacingAndGlyphs" textLength="115" x="138" y="61.0439">o.w.o.api.symbol</text><!--MD5=[6845d7967a516d6d9c8b65ca92d8593a]
class EntityEnumerated--><rect fill="#FEFECE" filter="url(#f1s8s94wxvzpz)" height="48" id="EntityEnumerated" style="stroke: #A80036; stroke-width: 1.5;" width="129" x="2350.5" y="487"/><ellipse cx="2365.5" cy="503" fill="#E3664A" rx="11" ry="11" style="stroke: #A80036; stroke-width: 1.0;"/><path d="M2363.9219,506.5 Q2363.2656,506.5 2363.1406,505.9219 Q2363.0156,505.3438 2362.5,504.3906 Q2362.5,502.9219 2363.4688,501.375 Q2364.4375,499.8125 2365.3438,499.8125 Q2365.7031,499.8125 2365.9531,500 Q2366.2188,500.1875 2365.9844,500.3594 L2365.8438,499.8125 L2367.25,499.8125 L2366.5938,503.5469 Q2366.5313,504 2366.4375,504.3281 Q2366.3906,504.6094 2366.3906,504.7344 Q2366.3906,504.7969 2366.3906,504.8125 Q2366.4063,504.8125 2366.4063,504.8125 Q2366.7813,504.8125 2367.1406,504.125 Q2367.5,503.4219 2367.5,502.0781 Q2367.5,499.8594 2366.7031,499.1875 Q2365.9063,498.5 2365.0156,498.5 Q2363.9531,498.5 2363.0625,499.5469 Q2362.1875,500.5938 2362.1875,503.2813 Q2362.1875,505.625 2362.7969,506.7188 Q2363.4063,507.8125 2365.0156,507.8125 Q2366,507.8125 2366.75,507.3594 Q2367.5156,506.9063 2368.1875,505.75 L2369.3281,506.1094 Q2368.3906,508.0469 2367.375,508.7813 Q2366.3594,509.5 2365.0313,509.5 Q2362.9688,509.5 2361.7344,507.7031 Q2360.5,505.9063 2360.5,503.2656 Q2360.5,500.3281 2362,498.5781 Q2363.5156,496.8125 2365.2031,496.8125 Q2366.8438,496.8125 2368.0156,498.0469 Q2369.1875,499.2813 2369.1875,501.9531 Q2369.1875,504.0781 2368.125,505.2969 Q2367.0625,506.5 2366.3281,506.5 Q2365.8125,506.5 2365.4375,506.1875 Q2365.0625,505.8594 2365.2344,505.7031 Q2365.3281,505.9219 2364.8906,506.2188 Q2364.4688,506.5 2363.9219,506.5 Z M2364.3125,504.8125 Q2364.5156,504.8125 2364.7188,504.5938 Q2364.9375,504.3594 2365.1094,503.8125 L2365.5156,501.625 Q2365.5313,501.5469 2365.5,501.5313 Q2365.4844,501.5 2365.375,501.5 Q2365.1563,501.5 2364.6719,502.2969 Q2364.1875,503.0938 2364.1875,504.3906 Q2364.1875,504.6875 2364.2188,504.75 Q2364.2656,504.8125 2364.3125,504.8125 Z "/><text fill="#000000" font-family="sans-serif" font-size="12" lengthAdjust="spacingAndGlyphs" textLength="97" x="2379.5" y="508.5576">EntityEnumerated</text><line style="stroke: #A80036; stroke-width: 1.5;" x1="2351.5" x2="2478.5" y1="519" y2="519"/><line style="stroke: #A80036; stroke-width: 1.5;" x1="2351.5" x2="2478.5" y1="527" y2="527"/><!--MD5=[89ae2598d32f9a83111d1f13044b0f24]
class EntityIdentity--><rect fill="#FEFECE" filter="url(#f1s8s94wxvzpz)" height="48" id="EntityIdentity" style="stroke: #A80036; stroke-width: 1.5;" width="99" x="2177.5" y="487"/><ellipse cx="2192.5" cy="503" fill="#ADD1B2" rx="11" ry="11" style="stroke: #A80036; stroke-width: 1.0;"/><path d="M2192.1875,509 Q2190.25,509 2189.125,507.5781 Q2188,506.1406 2188,503.1875 Q2188,500.6875 2189.1875,499 Q2190.375,497.3125 2192.4375,497.3125 Q2192.8906,497.3125 2193.3281,497.3125 Q2193.7656,497.3125 2194.0781,497.3125 Q2194.3281,497.3125 2194.4844,497.3125 Q2194.6563,497.3125 2195.0625,497.3125 L2195.7656,501 L2194.7031,501 Q2194.2656,499.9063 2193.6875,499.4531 Q2193.125,499 2192.2031,499 Q2191.0469,499 2190.3594,500.1875 Q2189.6875,501.3594 2189.6875,503.1875 Q2189.6875,505.2031 2190.2031,506.2656 Q2190.7344,507.3125 2192.1406,507.3125 Q2193.0625,507.3125 2193.7031,506.75 Q2194.3594,506.1719 2194.7031,504.7813 L2195.7344,505.2969 Q2195.3438,507.0469 2194.4063,508.0313 Q2193.4688,509 2192.1875,509 Z "/><text fill="#000000" font-family="sans-serif" font-size="12" lengthAdjust="spacingAndGlyphs" textLength="67" x="2206.5" y="508.5576">EntityIdentity</text><line style="stroke: #A80036; stroke-width: 1.5;" x1="2178.5" x2="2275.5" y1="519" y2="519"/><line style="stroke: #A80036; stroke-width: 1.5;" x1="2178.5" x2="2275.5" y1="527" y2="527"/><!--MD5=[1eb717e044ab0f82e99bd941bd7b45c1]
class EntitySpace--><rect fill="#FEFECE" filter="url(#f1s8s94wxvzpz)" height="48" id="EntitySpace" style="stroke: #A80036; stroke-width: 1.5;" width="157" x="2322.5" y="638"/><ellipse cx="2337.5" cy="654" fill="#ADD1B2" rx="11" ry="11" style="stroke: #A80036; stroke-width: 1.0;"/><path d="M2337.1875,660 Q2335.25,660 2334.125,658.5781 Q2333,657.1406 2333,654.1875 Q2333,651.6875 2334.1875,650 Q2335.375,648.3125 2337.4375,648.3125 Q2337.8906,648.3125 2338.3281,648.3125 Q2338.7656,648.3125 2339.0781,648.3125 Q2339.3281,648.3125 2339.4844,648.3125 Q2339.6563,648.3125 2340.0625,648.3125 L2340.7656,652 L2339.7031,652 Q2339.2656,650.9063 2338.6875,650.4531 Q2338.125,650 2337.2031,650 Q2336.0469,650 2335.3594,651.1875 Q2334.6875,652.3594 2334.6875,654.1875 Q2334.6875,656.2031 2335.2031,657.2656 Q2335.7344,658.3125 2337.1406,658.3125 Q2338.0625,658.3125 2338.7031,657.75 Q2339.3594,657.1719 2339.7031,655.7813 L2340.7344,656.2969 Q2340.3438,658.0469 2339.4063,659.0313 Q2338.4688,660 2337.1875,660 Z "/><text fill="#000000" font-family="sans-serif" font-size="12" lengthAdjust="spacingAndGlyphs" textLength="64" x="2351.5" y="659.5576">EntitySpace</text><rect fill="#FFFFFF" height="18.3887" style="stroke: #000000; stroke-width: 1.0; stroke-dasharray: 2.0,2.0;" width="59" x="2423.5" y="635"/><text fill="#000000" font-family="sans-serif" font-size="12" font-style="italic" lengthAdjust="spacingAndGlyphs" textLength="57" x="2424.5" y="649.752">EntityType</text><line style="stroke: #A80036; stroke-width: 1.5;" x1="2323.5" x2="2478.5" y1="670" y2="670"/><line style="stroke: #A80036; stroke-width: 1.5;" x1="2323.5" x2="2478.5" y1="678" y2="678"/><!--MD5=[a60007a1cc5b1dd5ac07e4a2fe8f9b0a]
class EntityWithSpace--><rect fill="#FEFECE" filter="url(#f1s8s94wxvzpz)" height="48" id="EntityWithSpace" style="stroke: #A80036; stroke-width: 1.5;" width="252" x="2035" y="638"/><ellipse cx="2050" cy="654" fill="#ADD1B2" rx="11" ry="11" style="stroke: #A80036; stroke-width: 1.0;"/><path d="M2049.6875,660 Q2047.75,660 2046.625,658.5781 Q2045.5,657.1406 2045.5,654.1875 Q2045.5,651.6875 2046.6875,650 Q2047.875,648.3125 2049.9375,648.3125 Q2050.3906,648.3125 2050.8281,648.3125 Q2051.2656,648.3125 2051.5781,648.3125 Q2051.8281,648.3125 2051.9844,648.3125 Q2052.1563,648.3125 2052.5625,648.3125 L2053.2656,652 L2052.2031,652 Q2051.7656,650.9063 2051.1875,650.4531 Q2050.625,650 2049.7031,650 Q2048.5469,650 2047.8594,651.1875 Q2047.1875,652.3594 2047.1875,654.1875 Q2047.1875,656.2031 2047.7031,657.2656 Q2048.2344,658.3125 2049.6406,658.3125 Q2050.5625,658.3125 2051.2031,657.75 Q2051.8594,657.1719 2052.2031,655.7813 L2053.2344,656.2969 Q2052.8438,658.0469 2051.9063,659.0313 Q2050.9688,660 2049.6875,660 Z "/><text fill="#000000" font-family="sans-serif" font-size="12" lengthAdjust="spacingAndGlyphs" textLength="88" x="2064" y="659.5576">EntityWithSpace</text><rect fill="#FFFFFF" height="18.3887" style="stroke: #000000; stroke-width: 1.0; stroke-dasharray: 2.0,2.0;" width="130" x="2160" y="635"/><text fill="#000000" font-family="sans-serif" font-size="12" font-style="italic" lengthAdjust="spacingAndGlyphs" textLength="128" x="2161" y="649.752">EntityType, EntitySpace</text><line style="stroke: #A80036; stroke-width: 1.5;" x1="2036" x2="2286" y1="670" y2="670"/><line style="stroke: #A80036; stroke-width: 1.5;" x1="2036" x2="2286" y1="678" y2="678"/><!--MD5=[c122890d7aef3b22cf79bfb9cabe05bf]
class EnumeratedEntitySetupRunner--><rect fill="#FEFECE" filter="url(#f1s8s94wxvzpz)" height="48" id="EnumeratedEntitySetupRunner" style="stroke: #A80036; stroke-width: 1.5;" width="202" x="2542" y="487"/><ellipse cx="2557" cy="503" fill="#ADD1B2" rx="11" ry="11" style="stroke: #A80036; stroke-width: 1.0;"/><path d="M2556.6875,509 Q2554.75,509 2553.625,507.5781 Q2552.5,506.1406 2552.5,503.1875 Q2552.5,500.6875 2553.6875,499 Q2554.875,497.3125 2556.9375,497.3125 Q2557.3906,497.3125 2557.8281,497.3125 Q2558.2656,497.3125 2558.5781,497.3125 Q2558.8281,497.3125 2558.9844,497.3125 Q2559.1563,497.3125 2559.5625,497.3125 L2560.2656,501 L2559.2031,501 Q2558.7656,499.9063 2558.1875,499.4531 Q2557.625,499 2556.7031,499 Q2555.5469,499 2554.8594,500.1875 Q2554.1875,501.3594 2554.1875,503.1875 Q2554.1875,505.2031 2554.7031,506.2656 Q2555.2344,507.3125 2556.6406,507.3125 Q2557.5625,507.3125 2558.2031,506.75 Q2558.8594,506.1719 2559.2031,504.7813 L2560.2344,505.2969 Q2559.8438,507.0469 2558.9063,508.0313 Q2557.9688,509 2556.6875,509 Z "/><text fill="#000000" font-family="sans-serif" font-size="12" lengthAdjust="spacingAndGlyphs" textLength="170" x="2571" y="508.5576">EnumeratedEntitySetupRunner</text><line style="stroke: #A80036; stroke-width: 1.5;" x1="2543" x2="2743" y1="519" y2="519"/><line style="stroke: #A80036; stroke-width: 1.5;" x1="2543" x2="2743" y1="527" y2="527"/><path d="M2536.5,621.5 L2536.5,702.5176 A0,0 0 0 0 2536.5,702.5176 L2761.5,702.5176 A0,0 0 0 0 2761.5,702.5176 L2761.5,631.5 L2751.5,621.5 L2651.4,621.5 L2643.94,535.281 L2643.4,621.5 L2536.5,621.5 A0,0 0 0 0 2536.5,621.5 " fill="#FBFB77" filter="url(#f1s8s94wxvzpz)" style="stroke: #A80036; stroke-width: 1.0;"/><path d="M2751.5,621.5 L2751.5,631.5 L2761.5,631.5 L2751.5,621.5 " fill="#FBFB77" style="stroke: #A80036; stroke-width: 1.0;"/><text fill="#000000" font-family="sans-serif" font-size="13" lengthAdjust="spacingAndGlyphs" textLength="26" x="2542.5" y="641.3979">基于</text><text fill="#000000" font-family="sans-serif" font-size="13" font-weight="bold" lengthAdjust="spacingAndGlyphs" textLength="125" x="2572.5" y="641.3979">@EntityEnumerated</text><text fill="#000000" font-family="sans-serif" font-size="13" lengthAdjust="spacingAndGlyphs" textLength="26" x="2701.5" y="641.3979">注解</text><text fill="#000000" font-family="sans-serif" font-size="13" lengthAdjust="spacingAndGlyphs" textLength="26" x="2542.5" y="659.1523">借助</text><text fill="#000000" font-family="sans-serif" font-size="13" font-weight="bold" lengthAdjust="spacingAndGlyphs" textLength="133" x="2572.5" y="659.1523">EntityTypeRepository</text><text fill="#000000" font-family="sans-serif" font-size="13" lengthAdjust="spacingAndGlyphs" textLength="26" x="2542.5" y="676.9067">使用</text><text fill="#000000" font-family="sans-serif" font-size="13" font-weight="bold" lengthAdjust="spacingAndGlyphs" textLength="102" x="2572.5" y="676.9067">EntityTypeEnum</text><text fill="#000000" font-family="sans-serif" font-size="13" lengthAdjust="spacingAndGlyphs" textLength="26" x="2678.5" y="676.9067">枚举</text><text fill="#000000" font-family="sans-serif" font-size="13" lengthAdjust="spacingAndGlyphs" textLength="52" x="2542.5" y="694.6611">进行实体</text><text fill="#000000" font-family="sans-serif" font-size="13" font-weight="bold" lengthAdjust="spacingAndGlyphs" textLength="66" x="2598.5" y="694.6611">EntityType</text><text fill="#000000" font-family="sans-serif" font-size="13" lengthAdjust="spacingAndGlyphs" textLength="78" x="2668.5" y="694.6611">收集和持久化</text><!--MD5=[6ab431f4e64fbcb9b406d8a8910ac154]
class EntityA--><rect fill="#FEFECE" filter="url(#f1s8s94wxvzpz)" height="108.0918" id="EntityA" style="stroke: #A80036; stroke-width: 1.5;" width="124" x="1509" y="807.5"/><ellipse cx="1549.2" cy="823.5" fill="#ADD1B2" rx="11" ry="11" style="stroke: #A80036; stroke-width: 1.0;"/><path d="M1548.8875,829.5 Q1546.95,829.5 1545.825,828.0781 Q1544.7,826.6406 1544.7,823.6875 Q1544.7,821.1875 1545.8875,819.5 Q1547.075,817.8125 1549.1375,817.8125 Q1549.5906,817.8125 1550.0281,817.8125 Q1550.4656,817.8125 1550.7781,817.8125 Q1551.0281,817.8125 1551.1844,817.8125 Q1551.3563,817.8125 1551.7625,817.8125 L1552.4656,821.5 L1551.4031,821.5 Q1550.9656,820.4063 1550.3875,819.9531 Q1549.825,819.5 1548.9031,819.5 Q1547.7469,819.5 1547.0594,820.6875 Q1546.3875,821.8594 1546.3875,823.6875 Q1546.3875,825.7031 1546.9031,826.7656 Q1547.4344,827.8125 1548.8406,827.8125 Q1549.7625,827.8125 1550.4031,827.25 Q1551.0594,826.6719 1551.4031,825.2813 L1552.4344,825.7969 Q1552.0438,827.5469 1551.1063,828.5313 Q1550.1688,829.5 1548.8875,829.5 Z "/><text fill="#000000" font-family="sans-serif" font-size="12" lengthAdjust="spacingAndGlyphs" textLength="36" x="1568.8" y="829.0576">EntityA</text><line style="stroke: #A80036; stroke-width: 1.5;" x1="1510" x2="1632" y1="839.5" y2="839.5"/><ellipse cx="1520" cy="850.5" fill="none" rx="3" ry="3" style="stroke: #038048; stroke-width: 1.0;"/><text fill="#000000" font-family="sans-serif" font-size="11" lengthAdjust="spacingAndGlyphs" textLength="82" x="1529" y="856.106">EntityAType type</text><ellipse cx="1520" cy="865.5229" fill="none" rx="3" ry="3" style="stroke: #038048; stroke-width: 1.0;"/><text fill="#000000" font-family="sans-serif" font-size="11" lengthAdjust="spacingAndGlyphs" textLength="98" x="1529" y="871.1289">EntityASpace space</text><ellipse cx="1520" cy="880.5459" fill="none" rx="3" ry="3" style="stroke: #038048; stroke-width: 1.0;"/><text fill="#000000" font-family="sans-serif" font-size="11" lengthAdjust="spacingAndGlyphs" textLength="69" x="1529" y="886.1519">String spaceId</text><ellipse cx="1520" cy="895.5688" fill="none" rx="3" ry="3" style="stroke: #038048; stroke-width: 1.0;"/><text fill="#000000" font-family="sans-serif" font-size="11" lengthAdjust="spacingAndGlyphs" textLength="93" x="1529" y="901.1748">Json spaceContent</text><line style="stroke: #A80036; stroke-width: 1.5;" x1="1510" x2="1632" y1="907.5918" y2="907.5918"/><!--MD5=[f038e3992c7865445b08f2285d0c9c87]
class EntityAType--><rect fill="#FEFECE" filter="url(#f1s8s94wxvzpz)" height="63.0229" id="EntityAType" style="stroke: #A80036; stroke-width: 1.5;" width="225" x="1445.5" y="1078"/><ellipse cx="1522.75" cy="1094" fill="#ADD1B2" rx="11" ry="11" style="stroke: #A80036; stroke-width: 1.0;"/><path d="M1522.4375,1100 Q1520.5,1100 1519.375,1098.5781 Q1518.25,1097.1406 1518.25,1094.1875 Q1518.25,1091.6875 1519.4375,1090 Q1520.625,1088.3125 1522.6875,1088.3125 Q1523.1406,1088.3125 1523.5781,1088.3125 Q1524.0156,1088.3125 1524.3281,1088.3125 Q1524.5781,1088.3125 1524.7344,1088.3125 Q1524.9063,1088.3125 1525.3125,1088.3125 L1526.0156,1092 L1524.9531,1092 Q1524.5156,1090.9063 1523.9375,1090.4531 Q1523.375,1090 1522.4531,1090 Q1521.2969,1090 1520.6094,1091.1875 Q1519.9375,1092.3594 1519.9375,1094.1875 Q1519.9375,1096.2031 1520.4531,1097.2656 Q1520.9844,1098.3125 1522.3906,1098.3125 Q1523.3125,1098.3125 1523.9531,1097.75 Q1524.6094,1097.1719 1524.9531,1095.7813 L1525.9844,1096.2969 Q1525.5938,1098.0469 1524.6563,1099.0313 Q1523.7188,1100 1522.4375,1100 Z "/><text fill="#000000" font-family="sans-serif" font-size="12" lengthAdjust="spacingAndGlyphs" textLength="62" x="1543.25" y="1099.5576">EntityAType</text><line style="stroke: #A80036; stroke-width: 1.5;" x1="1446.5" x2="1669.5" y1="1110" y2="1110"/><line style="stroke: #A80036; stroke-width: 1.5;" x1="1446.5" x2="1669.5" y1="1118" y2="1118"/><ellipse cx="1456.5" cy="1129" fill="#84BE84" rx="3" ry="3" style="stroke: #038048; stroke-width: 1.0;"/><text fill="#000000" font-family="sans-serif" font-size="11" lengthAdjust="spacingAndGlyphs" textLength="199" x="1465.5" y="1134.606">EntityAType from(EntityATypeEnum type)</text><!--MD5=[4c7a6fbb342179924da38f1ef3f35aa3]
class EntityATypeEnum--><rect fill="#FEFECE" filter="url(#f1s8s94wxvzpz)" height="78.0459" id="EntityATypeEnum" style="stroke: #A80036; stroke-width: 1.5;" width="127" x="1457.5" y="1220"/><ellipse cx="1472.5" cy="1236" fill="#EB937F" rx="11" ry="11" style="stroke: #A80036; stroke-width: 1.0;"/><path d="M1468.5625,1232 L1468.5625,1230.3125 L1476.2656,1230.3125 L1477.3594,1233 L1476.3906,1233 Q1475.7344,1232.4531 1475.0938,1232.2344 Q1474.4531,1232 1473.6875,1232 L1471.5313,1232 Q1471.3125,1232 1471.2031,1232 Q1471.1094,1232 1471.1875,1232 L1471.1875,1234.3125 L1472.6563,1234.3125 Q1473.1094,1234.3125 1473.2969,1234.0469 Q1473.5,1233.7813 1473.5,1233.125 L1473.5,1232.3125 L1475.1875,1232.3125 L1475.1875,1238 L1473.5,1238 L1473.5,1237.3594 Q1473.5,1236.6406 1473.2969,1236.3281 Q1473.0938,1236 1472.6563,1236 L1471.1875,1236 L1471.1875,1240.1719 Q1471.1875,1240.2344 1471.25,1240.2813 Q1471.3125,1240.3125 1471.5,1240.3125 L1473.4219,1240.3125 Q1474.5469,1240.3125 1475.1719,1239.8906 Q1475.7969,1239.4531 1476.2813,1238.3125 L1477.2813,1238.3125 L1476.3281,1242 L1468.5,1242 L1468.5,1240.3125 L1469.2344,1240.3125 Q1469.4531,1240.3125 1469.4688,1240.2969 Q1469.5,1240.2813 1469.5,1240.2031 L1469.5,1232.1094 Q1469.5,1232.0313 1469.4688,1232.0156 Q1469.4531,1232 1469.2344,1232 L1468.5625,1232 Z "/><text fill="#000000" font-family="sans-serif" font-size="12" lengthAdjust="spacingAndGlyphs" textLength="95" x="1486.5" y="1241.5576">EntityATypeEnum</text><line style="stroke: #A80036; stroke-width: 1.5;" x1="1458.5" x2="1583.5" y1="1252" y2="1252"/><text fill="#000000" font-family="sans-serif" font-size="11" lengthAdjust="spacingAndGlyphs" textLength="47" x="1463.5" y="1268.606">Integer id;</text><text fill="#000000" font-family="sans-serif" font-size="11" lengthAdjust="spacingAndGlyphs" textLength="82" x="1463.5" y="1283.6289">String typeName;</text><line style="stroke: #A80036; stroke-width: 1.5;" x1="1458.5" x2="1583.5" y1="1290.0459" y2="1290.0459"/><!--MD5=[14f2a2571c9376cf9b3649ee61c29135]
class EntityATypeName--><rect fill="#FEFECE" filter="url(#f1s8s94wxvzpz)" height="48" id="EntityATypeName" style="stroke: #A80036; stroke-width: 1.5;" width="128" x="1620" y="1235"/><ellipse cx="1635" cy="1251" fill="#ADD1B2" rx="11" ry="11" style="stroke: #A80036; stroke-width: 1.0;"/><path d="M1634.6875,1257 Q1632.75,1257 1631.625,1255.5781 Q1630.5,1254.1406 1630.5,1251.1875 Q1630.5,1248.6875 1631.6875,1247 Q1632.875,1245.3125 1634.9375,1245.3125 Q1635.3906,1245.3125 1635.8281,1245.3125 Q1636.2656,1245.3125 1636.5781,1245.3125 Q1636.8281,1245.3125 1636.9844,1245.3125 Q1637.1563,1245.3125 1637.5625,1245.3125 L1638.2656,1249 L1637.2031,1249 Q1636.7656,1247.9063 1636.1875,1247.4531 Q1635.625,1247 1634.7031,1247 Q1633.5469,1247 1632.8594,1248.1875 Q1632.1875,1249.3594 1632.1875,1251.1875 Q1632.1875,1253.2031 1632.7031,1254.2656 Q1633.2344,1255.3125 1634.6406,1255.3125 Q1635.5625,1255.3125 1636.2031,1254.75 Q1636.8594,1254.1719 1637.2031,1252.7813 L1638.2344,1253.2969 Q1637.8438,1255.0469 1636.9063,1256.0313 Q1635.9688,1257 1634.6875,1257 Z "/><text fill="#000000" font-family="sans-serif" font-size="12" lengthAdjust="spacingAndGlyphs" textLength="96" x="1649" y="1256.5576">EntityATypeName</text><line style="stroke: #A80036; stroke-width: 1.5;" x1="1621" x2="1747" y1="1267" y2="1267"/><line style="stroke: #A80036; stroke-width: 1.5;" x1="1621" x2="1747" y1="1275" y2="1275"/><!--MD5=[33da807c7ae9be0441f8dba4c6a395d3]
class EntityASpace--><rect fill="#FEFECE" filter="url(#f1s8s94wxvzpz)" height="108.0918" id="EntityASpace" style="stroke: #A80036; stroke-width: 1.5;" width="156" x="1737" y="807.5"/><ellipse cx="1774.95" cy="823.5" fill="#A9DCDF" rx="11" ry="11" style="stroke: #A80036; stroke-width: 1.0;"/><path d="M1776.0281,824.5 L1773.2156,824.5 L1772.4031,826.1094 Q1772.3563,826.2656 1772.3563,826.4063 Q1772.3563,826.5938 1772.4031,826.7031 Q1772.45,826.8125 1772.6688,826.8125 L1773.2156,826.8125 L1773.2156,828.5 L1769.95,828.5 L1769.95,826.8125 L1770.5125,826.8125 Q1770.7313,826.8125 1770.8406,826.75 Q1770.9656,826.6875 1771.0125,826.5 L1774.1063,816.8125 L1775.4813,816.8125 L1778.5125,826.3906 Q1778.6063,826.625 1778.7469,826.7188 Q1778.8875,826.8125 1779.075,826.8125 L1779.6375,826.8125 L1779.6375,828.5 L1775.9813,828.5 L1775.9813,826.8125 L1776.5906,826.8125 Q1776.7625,826.8125 1776.7625,826.7969 Q1776.7781,826.7813 1776.7781,826.7188 Q1776.7781,826.5469 1776.7469,826.4531 L1776.0281,824.5 Z M1770.8094,827.5 L1770.8094,827.5 Z M1771.4813,827.5 L1771.4813,827.5 Z M1776.2,827.5 L1776.2,827.5 Z M1777.325,827.5 L1777.325,827.5 Z M1774.5281,818.9063 L1774.6063,818.9063 L1773.7469,822.8125 L1775.7,822.8125 L1774.5281,818.9063 Z "/><text fill="#000000" font-family="sans-serif" font-size="12" font-style="italic" lengthAdjust="spacingAndGlyphs" textLength="73" x="1794.05" y="829.0576">EntityASpace</text><line style="stroke: #A80036; stroke-width: 1.5;" x1="1738" x2="1892" y1="839.5" y2="839.5"/><ellipse cx="1748" cy="850.5" fill="none" rx="3" ry="3" style="stroke: #038048; stroke-width: 1.0;"/><text fill="#000000" font-family="sans-serif" font-size="11" lengthAdjust="spacingAndGlyphs" textLength="39" x="1757" y="856.106">String id</text><ellipse cx="1748" cy="865.5229" fill="none" rx="3" ry="3" style="stroke: #038048; stroke-width: 1.0;"/><text fill="#000000" font-family="sans-serif" font-size="11" lengthAdjust="spacingAndGlyphs" textLength="130" x="1757" y="871.1289">Map&lt;String, Object&gt; space</text><ellipse cx="1748" cy="880.5459" fill="none" rx="3" ry="3" style="stroke: #038048; stroke-width: 1.0;"/><text fill="#000000" font-family="sans-serif" font-size="11" lengthAdjust="spacingAndGlyphs" textLength="95" x="1757" y="886.1519">Json spaceSchema</text><ellipse cx="1748" cy="895.5688" fill="none" rx="3" ry="3" style="stroke: #038048; stroke-width: 1.0;"/><text fill="#000000" font-family="sans-serif" font-size="11" lengthAdjust="spacingAndGlyphs" textLength="82" x="1757" y="901.1748">EntityAType type</text><line style="stroke: #A80036; stroke-width: 1.5;" x1="1738" x2="1892" y1="907.5918" y2="907.5918"/><!--MD5=[5f3afe75c106ad0f79be92284deff1f6]
class ImplementedEntitySpace--><rect fill="#FEFECE" filter="url(#f1s8s94wxvzpz)" height="63.0229" id="ImplementedEntitySpace" style="stroke: #A80036; stroke-width: 1.5;" width="174" x="1741" y="1078"/><ellipse cx="1758.25" cy="1094" fill="#ADD1B2" rx="11" ry="11" style="stroke: #A80036; stroke-width: 1.0;"/><path d="M1757.9375,1100 Q1756,1100 1754.875,1098.5781 Q1753.75,1097.1406 1753.75,1094.1875 Q1753.75,1091.6875 1754.9375,1090 Q1756.125,1088.3125 1758.1875,1088.3125 Q1758.6406,1088.3125 1759.0781,1088.3125 Q1759.5156,1088.3125 1759.8281,1088.3125 Q1760.0781,1088.3125 1760.2344,1088.3125 Q1760.4063,1088.3125 1760.8125,1088.3125 L1761.5156,1092 L1760.4531,1092 Q1760.0156,1090.9063 1759.4375,1090.4531 Q1758.875,1090 1757.9531,1090 Q1756.7969,1090 1756.1094,1091.1875 Q1755.4375,1092.3594 1755.4375,1094.1875 Q1755.4375,1096.2031 1755.9531,1097.2656 Q1756.4844,1098.3125 1757.8906,1098.3125 Q1758.8125,1098.3125 1759.4531,1097.75 Q1760.1094,1097.1719 1760.4531,1095.7813 L1761.4844,1096.2969 Q1761.0938,1098.0469 1760.1563,1099.0313 Q1759.2188,1100 1757.9375,1100 Z "/><text fill="#000000" font-family="sans-serif" font-size="12" lengthAdjust="spacingAndGlyphs" textLength="137" x="1772.75" y="1099.5576">ImplementedEntitySpace</text><line style="stroke: #A80036; stroke-width: 1.5;" x1="1742" x2="1914" y1="1110" y2="1110"/><text fill="#000000" font-family="sans-serif" font-size="11" lengthAdjust="spacingAndGlyphs" textLength="162" x="1747" y="1126.606">EntityAType type = EntityAType.X</text><line style="stroke: #A80036; stroke-width: 1.5;" x1="1742" x2="1914" y1="1133.0229" y2="1133.0229"/><!--MD5=[c7130832f63e25b3e804fad33ad54b0c]
class EntityARepository--><rect fill="#FEFECE" filter="url(#f1s8s94wxvzpz)" height="63.0229" id="EntityARepository" style="stroke: #A80036; stroke-width: 1.5;" width="129" x="1259.5" y="830"/><ellipse cx="1274.5" cy="846" fill="#B4A7E5" rx="11" ry="11" style="stroke: #A80036; stroke-width: 1.0;"/><path d="M1271.375,842 L1271.375,840.3125 L1277.3125,840.3125 L1277.3125,842 L1275.4375,842 Q1275.2813,842 1275.2344,842.0313 Q1275.1875,842.0625 1275.1875,842.1094 L1275.1875,850.2031 Q1275.1875,850.25 1275.2344,850.2813 Q1275.2813,850.3125 1275.4375,850.3125 L1277.3125,850.3125 L1277.3125,852 L1271.375,852 L1271.375,850.3125 L1273.25,850.3125 Q1273.4531,850.3125 1273.4688,850.2969 Q1273.5,850.2813 1273.5,850.2031 L1273.5,842.1094 Q1273.5,842.0313 1273.4688,842.0156 Q1273.4531,842 1273.25,842 L1271.375,842 Z "/><text fill="#000000" font-family="sans-serif" font-size="12" font-style="italic" lengthAdjust="spacingAndGlyphs" textLength="97" x="1288.5" y="851.5576">EntityARepository</text><line style="stroke: #A80036; stroke-width: 1.5;" x1="1260.5" x2="1387.5" y1="862" y2="862"/><line style="stroke: #A80036; stroke-width: 1.5;" x1="1260.5" x2="1387.5" y1="870" y2="870"/><ellipse cx="1270.5" cy="881" fill="#84BE84" rx="3" ry="3" style="stroke: #038048; stroke-width: 1.0;"/><text fill="#000000" font-family="sans-serif" font-size="11" lengthAdjust="spacingAndGlyphs" textLength="103" x="1279.5" y="886.606">save(EntityA entityA)</text><path d="M837.5,488 L837.5,533.5088 L1202.5,533.5088 L1202.5,498 L1192.5,488 L837.5,488 " fill="#FBFB77" filter="url(#f1s8s94wxvzpz)" style="stroke: #A80036; stroke-width: 1.0;"/><path d="M1192.5,488 L1192.5,498 L1202.5,498 L1192.5,488 " fill="#FBFB77" style="stroke: #A80036; stroke-width: 1.0;"/><text fill="#000000" font-family="sans-serif" font-size="13" lengthAdjust="spacingAndGlyphs" textLength="95" x="843.5" y="507.8979">程序启动后 收集</text><text fill="#000000" font-family="sans-serif" font-size="13" font-weight="bold" lengthAdjust="spacingAndGlyphs" textLength="141" x="942.5" y="507.8979">@EntityATypeSelector</text><text fill="#000000" font-family="sans-serif" font-size="13" lengthAdjust="spacingAndGlyphs" textLength="100" x="1087.5" y="507.8979">注解的 Handler，</text><text fill="#000000" font-family="sans-serif" font-size="13" lengthAdjust="spacingAndGlyphs" textLength="69" x="843.5" y="525.6523">执行时 通过</text><text fill="#000000" font-family="sans-serif" font-size="13" font-weight="bold" lengthAdjust="spacingAndGlyphs" textLength="37" x="916.5" y="525.6523">select</text><text fill="#000000" font-family="sans-serif" font-size="13" lengthAdjust="spacingAndGlyphs" textLength="126" x="957.5" y="525.6523">方法调用响应 Handler</text><!--MD5=[4d0dcfc277b60444fd778358d47534a8]
class EntityAService--><rect fill="#FEFECE" filter="url(#f1s8s94wxvzpz)" height="63.0229" id="EntityAService" style="stroke: #A80036; stroke-width: 1.5;" width="129" x="62.5" y="331.5"/><ellipse cx="86.95" cy="347.5" fill="#ADD1B2" rx="11" ry="11" style="stroke: #A80036; stroke-width: 1.0;"/><path d="M86.6375,353.5 Q84.7,353.5 83.575,352.0781 Q82.45,350.6406 82.45,347.6875 Q82.45,345.1875 83.6375,343.5 Q84.825,341.8125 86.8875,341.8125 Q87.3406,341.8125 87.7781,341.8125 Q88.2156,341.8125 88.5281,341.8125 Q88.7781,341.8125 88.9344,341.8125 Q89.1063,341.8125 89.5125,341.8125 L90.2156,345.5 L89.1531,345.5 Q88.7156,344.4063 88.1375,343.9531 Q87.575,343.5 86.6531,343.5 Q85.4969,343.5 84.8094,344.6875 Q84.1375,345.8594 84.1375,347.6875 Q84.1375,349.7031 84.6531,350.7656 Q85.1844,351.8125 86.5906,351.8125 Q87.5125,351.8125 88.1531,351.25 Q88.8094,350.6719 89.1531,349.2813 L90.1844,349.7969 Q89.7938,351.5469 88.8563,352.5313 Q87.9188,353.5 86.6375,353.5 Z "/><text fill="#000000" font-family="sans-serif" font-size="12" lengthAdjust="spacingAndGlyphs" textLength="76" x="103.05" y="353.0576">EntityAService</text><line style="stroke: #A80036; stroke-width: 1.5;" x1="63.5" x2="190.5" y1="363.5" y2="363.5"/><line style="stroke: #A80036; stroke-width: 1.5;" x1="63.5" x2="190.5" y1="371.5" y2="371.5"/><ellipse cx="73.5" cy="382.5" fill="#84BE84" rx="3" ry="3" style="stroke: #038048; stroke-width: 1.0;"/><text fill="#000000" font-family="sans-serif" font-size="11" lengthAdjust="spacingAndGlyphs" textLength="103" x="82.5" y="388.106">save(EntityA entityA)</text><!--MD5=[4ae32ff5bf1eb1f8e758a849025ec8d2]
class EntityASpaceHandler--><rect fill="#FEFECE" filter="url(#f1s8s94wxvzpz)" height="63.0229" id="EntityASpaceHandler" style="stroke: #A80036; stroke-width: 1.5;" width="149" x="404.5" y="630.5"/><ellipse cx="419.5" cy="646.5" fill="#A9DCDF" rx="11" ry="11" style="stroke: #A80036; stroke-width: 1.0;"/><path d="M420.5781,647.5 L417.7656,647.5 L416.9531,649.1094 Q416.9063,649.2656 416.9063,649.4063 Q416.9063,649.5938 416.9531,649.7031 Q417,649.8125 417.2188,649.8125 L417.7656,649.8125 L417.7656,651.5 L414.5,651.5 L414.5,649.8125 L415.0625,649.8125 Q415.2813,649.8125 415.3906,649.75 Q415.5156,649.6875 415.5625,649.5 L418.6563,639.8125 L420.0313,639.8125 L423.0625,649.3906 Q423.1563,649.625 423.2969,649.7188 Q423.4375,649.8125 423.625,649.8125 L424.1875,649.8125 L424.1875,651.5 L420.5313,651.5 L420.5313,649.8125 L421.1406,649.8125 Q421.3125,649.8125 421.3125,649.7969 Q421.3281,649.7813 421.3281,649.7188 Q421.3281,649.5469 421.2969,649.4531 L420.5781,647.5 Z M415.3594,650.5 L415.3594,650.5 Z M416.0313,650.5 L416.0313,650.5 Z M420.75,650.5 L420.75,650.5 Z M421.875,650.5 L421.875,650.5 Z M419.0781,641.9063 L419.1563,641.9063 L418.2969,645.8125 L420.25,645.8125 L419.0781,641.9063 Z "/><text fill="#000000" font-family="sans-serif" font-size="12" font-style="italic" lengthAdjust="spacingAndGlyphs" textLength="117" x="433.5" y="652.0576">EntityASpaceHandler</text><line style="stroke: #A80036; stroke-width: 1.5;" x1="405.5" x2="552.5" y1="662.5" y2="662.5"/><line style="stroke: #A80036; stroke-width: 1.5;" x1="405.5" x2="552.5" y1="670.5" y2="670.5"/><ellipse cx="415.5" cy="681.5" fill="#84BE84" rx="3" ry="3" style="stroke: #038048; stroke-width: 1.0;"/><text fill="#000000" font-family="sans-serif" font-size="11" lengthAdjust="spacingAndGlyphs" textLength="103" x="424.5" y="687.106">save(EntityA entityA)</text><!--MD5=[704ff7fe291b932f6f6e56e07e08ced4]
class EntityATypeSelector--><rect fill="#FEFECE" filter="url(#f1s8s94wxvzpz)" height="48" id="EntityATypeSelector" style="stroke: #A80036; stroke-width: 1.5;" width="139" x="663.5" y="487"/><ellipse cx="678.5" cy="503" fill="#E3664A" rx="11" ry="11" style="stroke: #A80036; stroke-width: 1.0;"/><path d="M676.9219,506.5 Q676.2656,506.5 676.1406,505.9219 Q676.0156,505.3438 675.5,504.3906 Q675.5,502.9219 676.4688,501.375 Q677.4375,499.8125 678.3438,499.8125 Q678.7031,499.8125 678.9531,500 Q679.2188,500.1875 678.9844,500.3594 L678.8438,499.8125 L680.25,499.8125 L679.5938,503.5469 Q679.5313,504 679.4375,504.3281 Q679.3906,504.6094 679.3906,504.7344 Q679.3906,504.7969 679.3906,504.8125 Q679.4063,504.8125 679.4063,504.8125 Q679.7813,504.8125 680.1406,504.125 Q680.5,503.4219 680.5,502.0781 Q680.5,499.8594 679.7031,499.1875 Q678.9063,498.5 678.0156,498.5 Q676.9531,498.5 676.0625,499.5469 Q675.1875,500.5938 675.1875,503.2813 Q675.1875,505.625 675.7969,506.7188 Q676.4063,507.8125 678.0156,507.8125 Q679,507.8125 679.75,507.3594 Q680.5156,506.9063 681.1875,505.75 L682.3281,506.1094 Q681.3906,508.0469 680.375,508.7813 Q679.3594,509.5 678.0313,509.5 Q675.9688,509.5 674.7344,507.7031 Q673.5,505.9063 673.5,503.2656 Q673.5,500.3281 675,498.5781 Q676.5156,496.8125 678.2031,496.8125 Q679.8438,496.8125 681.0156,498.0469 Q682.1875,499.2813 682.1875,501.9531 Q682.1875,504.0781 681.125,505.2969 Q680.0625,506.5 679.3281,506.5 Q678.8125,506.5 678.4375,506.1875 Q678.0625,505.8594 678.2344,505.7031 Q678.3281,505.9219 677.8906,506.2188 Q677.4688,506.5 676.9219,506.5 Z M677.3125,504.8125 Q677.5156,504.8125 677.7188,504.5938 Q677.9375,504.3594 678.1094,503.8125 L678.5156,501.625 Q678.5313,501.5469 678.5,501.5313 Q678.4844,501.5 678.375,501.5 Q678.1563,501.5 677.6719,502.2969 Q677.1875,503.0938 677.1875,504.3906 Q677.1875,504.6875 677.2188,504.75 Q677.2656,504.8125 677.3125,504.8125 Z "/><text fill="#000000" font-family="sans-serif" font-size="12" lengthAdjust="spacingAndGlyphs" textLength="107" x="692.5" y="508.5576">EntityATypeSelector</text><line style="stroke: #A80036; stroke-width: 1.5;" x1="664.5" x2="801.5" y1="519" y2="519"/><line style="stroke: #A80036; stroke-width: 1.5;" x1="664.5" x2="801.5" y1="527" y2="527"/><!--MD5=[ee2362fd481af5382b69596779e20ec8]
class EntityASpaceHandlerHolder--><rect fill="#FEFECE" filter="url(#f1s8s94wxvzpz)" height="63.0229" id="EntityASpaceHandlerHolder" style="stroke: #A80036; stroke-width: 1.5;" width="338" x="224" y="479.5"/><ellipse cx="312.75" cy="495.5" fill="#ADD1B2" rx="11" ry="11" style="stroke: #A80036; stroke-width: 1.0;"/><path d="M312.4375,501.5 Q310.5,501.5 309.375,500.0781 Q308.25,498.6406 308.25,495.6875 Q308.25,493.1875 309.4375,491.5 Q310.625,489.8125 312.6875,489.8125 Q313.1406,489.8125 313.5781,489.8125 Q314.0156,489.8125 314.3281,489.8125 Q314.5781,489.8125 314.7344,489.8125 Q314.9063,489.8125 315.3125,489.8125 L316.0156,493.5 L314.9531,493.5 Q314.5156,492.4063 313.9375,491.9531 Q313.375,491.5 312.4531,491.5 Q311.2969,491.5 310.6094,492.6875 Q309.9375,493.8594 309.9375,495.6875 Q309.9375,497.7031 310.4531,498.7656 Q310.9844,499.8125 312.3906,499.8125 Q313.3125,499.8125 313.9531,499.25 Q314.6094,498.6719 314.9531,497.2813 L315.9844,497.7969 Q315.5938,499.5469 314.6563,500.5313 Q313.7188,501.5 312.4375,501.5 Z "/><text fill="#000000" font-family="sans-serif" font-size="12" lengthAdjust="spacingAndGlyphs" textLength="152" x="333.25" y="501.0576">EntityASpaceHandlerHolder</text><line style="stroke: #A80036; stroke-width: 1.5;" x1="225" x2="561" y1="511.5" y2="511.5"/><line style="stroke: #A80036; stroke-width: 1.5;" x1="225" x2="561" y1="519.5" y2="519.5"/><ellipse cx="235" cy="530.5" fill="#84BE84" rx="3" ry="3" style="stroke: #038048; stroke-width: 1.0;"/><text fill="#000000" font-family="sans-serif" font-size="11" lengthAdjust="spacingAndGlyphs" textLength="312" x="244" y="536.106">Optional&lt;EntityASpaceHandler&gt; select(EntityAType entityAType)</text><!--MD5=[966643c7379f7f1ceeebd4a8711a83ae]
class ApplicationContextAware--><rect fill="#FEFECE" filter="url(#f1s8s94wxvzpz)" height="48" id="ApplicationContextAware" style="stroke: #A80036; stroke-width: 1.5;" width="169" x="308.5" y="339"/><ellipse cx="323.5" cy="355" fill="#B4A7E5" rx="11" ry="11" style="stroke: #A80036; stroke-width: 1.0;"/><path d="M320.375,351 L320.375,349.3125 L326.3125,349.3125 L326.3125,351 L324.4375,351 Q324.2813,351 324.2344,351.0313 Q324.1875,351.0625 324.1875,351.1094 L324.1875,359.2031 Q324.1875,359.25 324.2344,359.2813 Q324.2813,359.3125 324.4375,359.3125 L326.3125,359.3125 L326.3125,361 L320.375,361 L320.375,359.3125 L322.25,359.3125 Q322.4531,359.3125 322.4688,359.2969 Q322.5,359.2813 322.5,359.2031 L322.5,351.1094 Q322.5,351.0313 322.4688,351.0156 Q322.4531,351 322.25,351 L320.375,351 Z "/><text fill="#000000" font-family="sans-serif" font-size="12" font-style="italic" lengthAdjust="spacingAndGlyphs" textLength="137" x="337.5" y="360.5576">ApplicationContextAware</text><line style="stroke: #A80036; stroke-width: 1.5;" x1="309.5" x2="476.5" y1="371" y2="371"/><line style="stroke: #A80036; stroke-width: 1.5;" x1="309.5" x2="476.5" y1="379" y2="379"/><!--MD5=[e587ba6f4cf17fc3c208865aa9081727]
class ImplementedEntityASpaceHandler--><rect fill="#FEFECE" filter="url(#f1s8s94wxvzpz)" height="63.0229" id="ImplementedEntityASpaceHandler" style="stroke: #A80036; stroke-width: 1.5;" width="220" x="535" y="830"/><ellipse cx="550" cy="846" fill="#ADD1B2" rx="11" ry="11" style="stroke: #A80036; stroke-width: 1.0;"/><path d="M549.6875,852 Q547.75,852 546.625,850.5781 Q545.5,849.1406 545.5,846.1875 Q545.5,843.6875 546.6875,842 Q547.875,840.3125 549.9375,840.3125 Q550.3906,840.3125 550.8281,840.3125 Q551.2656,840.3125 551.5781,840.3125 Q551.8281,840.3125 551.9844,840.3125 Q552.1563,840.3125 552.5625,840.3125 L553.2656,844 L552.2031,844 Q551.7656,842.9063 551.1875,842.4531 Q550.625,842 549.7031,842 Q548.5469,842 547.8594,843.1875 Q547.1875,844.3594 547.1875,846.1875 Q547.1875,848.2031 547.7031,849.2656 Q548.2344,850.3125 549.6406,850.3125 Q550.5625,850.3125 551.2031,849.75 Q551.8594,849.1719 552.2031,847.7813 L553.2344,848.2969 Q552.8438,850.0469 551.9063,851.0313 Q550.9688,852 549.6875,852 Z "/><text fill="#000000" font-family="sans-serif" font-size="12" lengthAdjust="spacingAndGlyphs" textLength="188" x="564" y="851.5576">ImplementedEntityASpaceHandler</text><line style="stroke: #A80036; stroke-width: 1.5;" x1="536" x2="754" y1="862" y2="862"/><line style="stroke: #A80036; stroke-width: 1.5;" x1="536" x2="754" y1="870" y2="870"/><ellipse cx="546" cy="881" fill="#84BE84" rx="3" ry="3" style="stroke: #038048; stroke-width: 1.0;"/><text fill="#000000" font-family="sans-serif" font-size="11" lengthAdjust="spacingAndGlyphs" textLength="103" x="555" y="886.606">save(EntityA entityA)</text><!--MD5=[de374c43ebc71837e168e6acadf5e812]
class EntityAAPI--><rect fill="#FEFECE" filter="url(#f1s8s94wxvzpz)" height="48" id="EntityAAPI" style="stroke: #A80036; stroke-width: 1.5;" width="86" x="162" y="78"/><ellipse cx="177" cy="94" fill="#ADD1B2" rx="11" ry="11" style="stroke: #A80036; stroke-width: 1.0;"/><path d="M176.6875,100 Q174.75,100 173.625,98.5781 Q172.5,97.1406 172.5,94.1875 Q172.5,91.6875 173.6875,90 Q174.875,88.3125 176.9375,88.3125 Q177.3906,88.3125 177.8281,88.3125 Q178.2656,88.3125 178.5781,88.3125 Q178.8281,88.3125 178.9844,88.3125 Q179.1563,88.3125 179.5625,88.3125 L180.2656,92 L179.2031,92 Q178.7656,90.9063 178.1875,90.4531 Q177.625,90 176.7031,90 Q175.5469,90 174.8594,91.1875 Q174.1875,92.3594 174.1875,94.1875 Q174.1875,96.2031 174.7031,97.2656 Q175.2344,98.3125 176.6406,98.3125 Q177.5625,98.3125 178.2031,97.75 Q178.8594,97.1719 179.2031,95.7813 L180.2344,96.2969 Q179.8438,98.0469 178.9063,99.0313 Q177.9688,100 176.6875,100 Z "/><text fill="#000000" font-family="sans-serif" font-size="12" lengthAdjust="spacingAndGlyphs" textLength="54" x="191" y="99.5576">EntityAAPI</text><line style="stroke: #A80036; stroke-width: 1.5;" x1="163" x2="247" y1="110" y2="110"/><line style="stroke: #A80036; stroke-width: 1.5;" x1="163" x2="247" y1="118" y2="118"/><!--MD5=[95548c13781eba021113a1d95525e7ed]
class EntityType--><rect fill="#FEFECE" filter="url(#f1s8s94wxvzpz)" height="63.0229" id="EntityType" style="stroke: #A80036; stroke-width: 1.5;" width="184" x="2323" y="331.5"/><ellipse cx="2383.25" cy="347.5" fill="#ADD1B2" rx="11" ry="11" style="stroke: #A80036; stroke-width: 1.0;"/><path d="M2382.9375,353.5 Q2381,353.5 2379.875,352.0781 Q2378.75,350.6406 2378.75,347.6875 Q2378.75,345.1875 2379.9375,343.5 Q2381.125,341.8125 2383.1875,341.8125 Q2383.6406,341.8125 2384.0781,341.8125 Q2384.5156,341.8125 2384.8281,341.8125 Q2385.0781,341.8125 2385.2344,341.8125 Q2385.4063,341.8125 2385.8125,341.8125 L2386.5156,345.5 L2385.4531,345.5 Q2385.0156,344.4063 2384.4375,343.9531 Q2383.875,343.5 2382.9531,343.5 Q2381.7969,343.5 2381.1094,344.6875 Q2380.4375,345.8594 2380.4375,347.6875 Q2380.4375,349.7031 2380.9531,350.7656 Q2381.4844,351.8125 2382.8906,351.8125 Q2383.8125,351.8125 2384.4531,351.25 Q2385.1094,350.6719 2385.4531,349.2813 L2386.4844,349.7969 Q2386.0938,351.5469 2385.1563,352.5313 Q2384.2188,353.5 2382.9375,353.5 Z "/><text fill="#000000" font-family="sans-serif" font-size="12" lengthAdjust="spacingAndGlyphs" textLength="55" x="2403.75" y="353.0576">EntityType</text><line style="stroke: #A80036; stroke-width: 1.5;" x1="2324" x2="2506" y1="363.5" y2="363.5"/><line style="stroke: #A80036; stroke-width: 1.5;" x1="2324" x2="2506" y1="371.5" y2="371.5"/><ellipse cx="2334" cy="382.5" fill="#84BE84" rx="3" ry="3" style="stroke: #038048; stroke-width: 1.0;"/><text fill="#000000" font-family="sans-serif" font-size="11" lengthAdjust="spacingAndGlyphs" textLength="158" x="2343" y="388.106">EntityType(EntityTypeEnum type)</text><!--MD5=[979b2c7add54b601bdff95ac5f617f8a]
class EntityTypeEnum--><rect fill="#FEFECE" filter="url(#f1s8s94wxvzpz)" height="78.0459" id="EntityTypeEnum" style="stroke: #A80036; stroke-width: 1.5;" width="120" x="2542" y="324"/><ellipse cx="2557" cy="340" fill="#EB937F" rx="11" ry="11" style="stroke: #A80036; stroke-width: 1.0;"/><path d="M2553.0625,336 L2553.0625,334.3125 L2560.7656,334.3125 L2561.8594,337 L2560.8906,337 Q2560.2344,336.4531 2559.5938,336.2344 Q2558.9531,336 2558.1875,336 L2556.0313,336 Q2555.8125,336 2555.7031,336 Q2555.6094,336 2555.6875,336 L2555.6875,338.3125 L2557.1563,338.3125 Q2557.6094,338.3125 2557.7969,338.0469 Q2558,337.7813 2558,337.125 L2558,336.3125 L2559.6875,336.3125 L2559.6875,342 L2558,342 L2558,341.3594 Q2558,340.6406 2557.7969,340.3281 Q2557.5938,340 2557.1563,340 L2555.6875,340 L2555.6875,344.1719 Q2555.6875,344.2344 2555.75,344.2813 Q2555.8125,344.3125 2556,344.3125 L2557.9219,344.3125 Q2559.0469,344.3125 2559.6719,343.8906 Q2560.2969,343.4531 2560.7813,342.3125 L2561.7813,342.3125 L2560.8281,346 L2553,346 L2553,344.3125 L2553.7344,344.3125 Q2553.9531,344.3125 2553.9688,344.2969 Q2554,344.2813 2554,344.2031 L2554,336.1094 Q2554,336.0313 2553.9688,336.0156 Q2553.9531,336 2553.7344,336 L2553.0625,336 Z "/><text fill="#000000" font-family="sans-serif" font-size="12" lengthAdjust="spacingAndGlyphs" textLength="88" x="2571" y="345.5576">EntityTypeEnum</text><line style="stroke: #A80036; stroke-width: 1.5;" x1="2543" x2="2661" y1="356" y2="356"/><ellipse cx="2553" cy="367" fill="none" rx="3" ry="3" style="stroke: #038048; stroke-width: 1.0;"/><text fill="#000000" font-family="sans-serif" font-size="11" lengthAdjust="spacingAndGlyphs" textLength="44" x="2562" y="372.606">Integer id</text><ellipse cx="2553" cy="382.0229" fill="none" rx="3" ry="3" style="stroke: #038048; stroke-width: 1.0;"/><text fill="#000000" font-family="sans-serif" font-size="11" lengthAdjust="spacingAndGlyphs" textLength="79" x="2562" y="387.6289">String typeName</text><line style="stroke: #A80036; stroke-width: 1.5;" x1="2543" x2="2661" y1="394.0459" y2="394.0459"/><!--MD5=[e37b7a67f6a73ae84165404a1ceb359a]
class EntityTypeRepository--><rect fill="#FEFECE" filter="url(#f1s8s94wxvzpz)" height="63.0229" id="EntityTypeRepository" style="stroke: #A80036; stroke-width: 1.5;" width="254" x="2034" y="331.5"/><ellipse cx="2049" cy="347.5" fill="#B4A7E5" rx="11" ry="11" style="stroke: #A80036; stroke-width: 1.0;"/><path d="M2045.875,343.5 L2045.875,341.8125 L2051.8125,341.8125 L2051.8125,343.5 L2049.9375,343.5 Q2049.7813,343.5 2049.7344,343.5313 Q2049.6875,343.5625 2049.6875,343.6094 L2049.6875,351.7031 Q2049.6875,351.75 2049.7344,351.7813 Q2049.7813,351.8125 2049.9375,351.8125 L2051.8125,351.8125 L2051.8125,353.5 L2045.875,353.5 L2045.875,351.8125 L2047.75,351.8125 Q2047.9531,351.8125 2047.9688,351.7969 Q2048,351.7813 2048,351.7031 L2048,343.6094 Q2048,343.5313 2047.9688,343.5156 Q2047.9531,343.5 2047.75,343.5 L2045.875,343.5 Z "/><text fill="#000000" font-family="sans-serif" font-size="12" font-style="italic" lengthAdjust="spacingAndGlyphs" textLength="116" x="2063" y="353.0576">EntityTypeRepository</text><rect fill="#FFFFFF" height="18.3887" style="stroke: #000000; stroke-width: 1.0; stroke-dasharray: 2.0,2.0;" width="104" x="2187" y="328.5"/><text fill="#000000" font-family="sans-serif" font-size="12" font-style="italic" lengthAdjust="spacingAndGlyphs" textLength="102" x="2188" y="343.252">Integer, EntityType</text><line style="stroke: #A80036; stroke-width: 1.5;" x1="2035" x2="2287" y1="363.5" y2="363.5"/><line style="stroke: #A80036; stroke-width: 1.5;" x1="2035" x2="2287" y1="371.5" y2="371.5"/><ellipse cx="2045" cy="382.5" fill="#84BE84" rx="3" ry="3" style="stroke: #038048; stroke-width: 1.0;"/><text fill="#000000" font-family="sans-serif" font-size="11" lengthAdjust="spacingAndGlyphs" textLength="106" x="2054" y="388.106">save(EntityType type)</text><!--MD5=[5ca6d5e321ce99527706eb467b75fdd9]
reverse link EntityIdentity to EntitySpace--><path d="M2269.6,548.477 C2302.18,576.378 2346.11,613.998 2374,637.882 " fill="none" id="EntityIdentity&lt;-EntitySpace" style="stroke: #A80036; stroke-width: 1.0;"/><polygon fill="none" points="2264.83,553.607,2254.19,535.281,2273.93,542.973,2264.83,553.607" style="stroke: #A80036; stroke-width: 1.0;"/><!--MD5=[ae4c6fac407da5680cf13bc9551c63c1]
reverse link EntityIdentity to EntityWithSpace--><path d="M2208.42,553.941 C2196.38,581.131 2181.14,615.525 2171.24,637.882 " fill="none" id="EntityIdentity&lt;-EntityWithSpace" style="stroke: #A80036; stroke-width: 1.0;"/><polygon fill="none" points="2202.19,550.733,2216.69,535.281,2214.99,556.403,2202.19,550.733" style="stroke: #A80036; stroke-width: 1.0;"/><!--MD5=[9989c2d9608ded3d6b7a02e83a311a05]
reverse link EntityType to EntityEnumerated--><path d="M2415,407.897 C2415,433.771 2415,465.478 2415,486.629 " fill="none" id="EntityType&lt;-EntityEnumerated" style="stroke: #A80036; stroke-width: 1.0;"/><polygon fill="#A80036" points="2415,394.606,2411,400.606,2415,406.606,2419,400.606,2415,394.606" style="stroke: #A80036; stroke-width: 1.0;"/><!--MD5=[d9879d4e8a5cac9389c9ecce2b3fa1f6]
reverse link EntityTypeRepository to EntityEnumerated--><path d="M2225.53,401.095 C2272.51,428.094 2334.66,463.818 2374.74,486.856 " fill="none" id="EntityTypeRepository&lt;-EntityEnumerated" style="stroke: #A80036; stroke-width: 1.0;"/><polygon fill="#A80036" points="2214.25,394.606,2217.4617,401.0624,2224.6567,400.581,2221.445,394.1246,2214.25,394.606" style="stroke: #A80036; stroke-width: 1.0;"/><!--MD5=[e68216e16362a4708cb015cdc8b5de58]
reverse link EntityTypeEnum to EntityEnumerated--><path d="M2542.51,410.445 C2509.85,435.948 2470.77,466.458 2444.56,486.921 " fill="none" id="EntityTypeEnum&lt;-EntityEnumerated" style="stroke: #A80036; stroke-width: 1.0;"/><polygon fill="#A80036" points="2552.87,402.36,2545.6791,402.8998,2543.4117,409.7452,2550.6026,409.2053,2552.87,402.36" style="stroke: #A80036; stroke-width: 1.0;"/><!--MD5=[8f82ffe03d73e2e442564a128d056bad]
reverse link EntityEnumerated to EnumeratedEntitySetupRunner--><path d="M2492.7,511 C2509.07,511 2525.44,511 2541.81,511 " fill="none" id="EntityEnumerated&lt;-EnumeratedEntitySetupRunner" style="stroke: #A80036; stroke-width: 1.0;"/><polygon fill="#A80036" points="2479.57,511,2485.57,515,2491.57,511,2485.57,507,2479.57,511" style="stroke: #A80036; stroke-width: 1.0;"/><!--MD5=[428725443329af17fe4e4d58b650dc82]
reverse link EntityWithSpace to EntityA--><path d="M2014.92,681.628 C1926.71,696.24 1813.48,721.063 1719,761.5 C1689.02,774.333 1658.61,793.402 1633.22,811.388 " fill="none" id="EntityWithSpace&lt;-EntityA" style="stroke: #A80036; stroke-width: 1.0;"/><polygon fill="none" points="2013.91,674.701,2034.77,678.442,2016.13,688.524,2013.91,674.701" style="stroke: #A80036; stroke-width: 1.0;"/><!--MD5=[a874d8688a85efcf9fe0e02ae4cda5b6]
reverse link EntitySpace to EntityASpace--><path d="M2354.07,697.947 C2338.7,708.224 2321.15,718.77 2304,726.5 C2165.77,788.817 1992.17,827.939 1893.38,846.868 " fill="none" id="EntitySpace&lt;-EntityASpace" style="stroke: #A80036; stroke-width: 1.0;"/><polygon fill="none" points="2350.56,691.866,2370.97,686.19,2358.55,703.358,2350.56,691.866" style="stroke: #A80036; stroke-width: 1.0;"/><!--MD5=[3ec880be02425178da0e80e10564747b]
reverse link EntityASpace to ImplementedEntitySpace--><path d="M1818.87,935.763 C1821.38,983.258 1824.52,1042.651 1826.39,1077.974 " fill="none" id="EntityASpace&lt;-ImplementedEntitySpace" style="stroke: #A80036; stroke-width: 1.0;"/><polygon fill="none" points="1811.87,935.917,1817.8,915.575,1825.85,935.178,1811.87,935.917" style="stroke: #A80036; stroke-width: 1.0;"/><!--MD5=[104100df1dce1ca6c8f61d2edf3fa3a7]
reverse link EntityAType to EntityATypeEnum--><path d="M1547.13,1153.83 C1541.88,1174.763 1535.63,1199.659 1530.57,1219.864 " fill="none" id="EntityAType&lt;-EntityATypeEnum" style="stroke: #A80036; stroke-width: 1.0;"/><polygon fill="#A80036" points="1550.33,1141.062,1544.989,1145.907,1547.4072,1152.7006,1552.7481,1147.8556,1550.33,1141.062" style="stroke: #A80036; stroke-width: 1.0;"/><!--MD5=[be8c93dbde7e0876680226add46d5ed3]
reverse link EntityAType to EntityATypeName--><path d="M1592.57,1150.973 C1615.57,1177.895 1644.96,1212.303 1664.12,1234.732 " fill="none" id="EntityAType&lt;-EntityATypeName" style="stroke: #A80036; stroke-width: 1.0;"/><polygon fill="#A80036" points="1584.11,1141.062,1584.9655,1148.2222,1591.904,1150.1864,1591.0484,1143.0262,1584.11,1141.062" style="stroke: #A80036; stroke-width: 1.0;"/><!--MD5=[8081032dc40186b886aaf74b9dbd3593]
reverse link EntityA to EntityAType--><path d="M1567.5,928.825 C1564.93,977.34 1561.57,1040.909 1559.61,1077.974 " fill="none" id="EntityA&lt;-EntityAType" style="stroke: #A80036; stroke-width: 1.0;"/><polygon fill="#A80036" points="1568.2,915.575,1563.8882,921.355,1567.5652,927.5582,1571.877,921.7782,1568.2,915.575" style="stroke: #A80036; stroke-width: 1.0;"/><text fill="#000000" font-family="sans-serif" font-size="13" lengthAdjust="spacingAndGlyphs" textLength="65" x="1566" y="1004.8979">具象化依据</text><!--MD5=[40a83c9ea2bf5261def3ba1122804393]
reverse link EntityA to EntityASpace--><path d="M1646.48,861.5 C1675.13,861.5 1707.81,861.5 1736.72,861.5 " fill="none" id="EntityA&lt;-EntityASpace" style="stroke: #A80036; stroke-width: 1.0;"/><polygon fill="#A80036" points="1633.2,861.5,1639.2,865.5,1645.2,861.5,1639.2,857.5,1633.2,861.5" style="stroke: #A80036; stroke-width: 1.0;"/><text fill="#000000" font-family="sans-serif" font-size="13" lengthAdjust="spacingAndGlyphs" textLength="65" x="1652.5" y="855.3979">抽象化载体</text><!--MD5=[09832dfd94dec6644c463f8579e8a731]
reverse link ext.space to EntityASpace--><path d="M1709.7195,1031.7352 C1709.7864,1031.3199 1709.8544,1030.9044 1709.9234,1030.4886 C1710.0614,1029.6571 1710.2034,1028.8249 1710.3495,1027.9921 C1712.6881,1014.6679 1716.09,1001.2235 1721,989 C1731.56,962.722 1748.94,937.015 1765.91,915.712 " fill="none" id="ext.space&lt;-EntityASpace" style="stroke: #A80036; stroke-width: 1.0;"/><polygon fill="#FFFFFF" points="1709.7195,1031.7352,1719.6551,1014.092,1705.8336,1011.8631,1709.7195,1031.7352" style="stroke: #A80036; stroke-width: 1.0;"/><text fill="#000000" font-family="sans-serif" font-size="13" lengthAdjust="spacingAndGlyphs" textLength="91" x="1722" y="1004.8979">具象化载体实例</text><!--MD5=[055c88521cab472f0842f8363accb229]
link EntityARepository to EntityA--><path d="M1388.64,861.5 C1424.28,861.5 1459.91,861.5 1495.54,861.5 " fill="none" id="EntityARepository-&gt;EntityA" style="stroke: #A80036; stroke-width: 1.0;"/><polygon fill="#A80036" points="1508.67,861.5,1502.67,857.5,1496.67,861.5,1502.67,865.5,1508.67,861.5" style="stroke: #A80036; stroke-width: 1.0;"/><!--MD5=[e782b1dac6f5798a56d57430ae13489b]
reverse link ApplicationContextAware to EntityASpaceHandlerHolder--><path d="M393,407.473 C393,430.611 393,458.507 393,479.356 " fill="none" id="ApplicationContextAware&lt;-EntityASpaceHandlerHolder" style="stroke: #A80036; stroke-width: 1.0; stroke-dasharray: 7.0,7.0;"/><polygon fill="none" points="386,407.134,393,387.134,400,407.134,386,407.134" style="stroke: #A80036; stroke-width: 1.0;"/><!--MD5=[d21be0523b2d82df29239cc7d4f3b8fc]
link GMN106675 to EntityASpaceHandlerHolder--><path d="M977.611,487.819 C934.684,465.764 865.652,434.13 801.5,421.5 C680.4,397.659 539.996,444.95 459.329,479.413 " fill="none" id="GMN106675-EntityASpaceHandlerHolder" style="stroke: #A80036; stroke-width: 1.0; stroke-dasharray: 7.0,7.0;"/><!--MD5=[de0ce802691ce3a26e5ca94f72d7601a]
reverse link EntityASpaceHandlerHolder to EntityATypeSelector--><path d="M567.043,511 C601.187,511 635.114,511 663.31,511 " fill="none" id="EntityASpaceHandlerHolder&lt;-EntityATypeSelector" style="stroke: #A80036; stroke-width: 1.0;"/><polygon fill="#A80036" points="562.004,511,571.004,515,567.004,511,571.004,507,562.004,511" style="stroke: #A80036; stroke-width: 1.0;"/><text fill="#000000" font-family="sans-serif" font-size="13" lengthAdjust="spacingAndGlyphs" textLength="65" x="580.25" y="504.8979">执行者收集</text><!--MD5=[5a6eb27d8cce8b5bc7e02d7052f32d49]
reverse link EntityASpaceHandlerHolder to EntityASpaceHandler--><path d="M413.273,547.124 C427.846,572.373 447.307,606.091 461.265,630.273 " fill="none" id="EntityASpaceHandlerHolder&lt;-EntityASpaceHandler" style="stroke: #A80036; stroke-width: 1.0;"/><polygon fill="#A80036" points="410.611,542.512,411.6446,552.3065,413.11,546.8427,418.5737,548.3081,410.611,542.512" style="stroke: #A80036; stroke-width: 1.0;"/><text fill="#000000" font-family="sans-serif" font-size="13" lengthAdjust="spacingAndGlyphs" textLength="65" x="440" y="588.3979">执行者定义</text><!--MD5=[9b616651c4b1be3c775ca2202494c989]
link EntityASpaceHandler to ext.handler--><path d="M482.281,693.859 C483.7345,707.5288 485.5457,724.5626 487.4505,742.4768 C488.4029,751.4339 489.3787,760.6112 490.3449,769.6981 C490.828,774.2415 491.3087,778.7624 491.7828,783.2218 C491.8421,783.7793 491.9013,784.3357 491.9603,784.8912 " fill="none" id="EntityASpaceHandler-&gt;ext.handler" style="stroke: #A80036; stroke-width: 1.0;"/><polygon fill="#FFFFFF" points="491.9603,784.8912,496.9122,765.2576,482.9907,766.7378,491.9603,784.8912" style="stroke: #A80036; stroke-width: 1.0;"/><text fill="#000000" font-family="sans-serif" font-size="13" lengthAdjust="spacingAndGlyphs" textLength="65" x="490" y="750.3979">具体执行者</text><!--MD5=[7577d47d87d36e6fd44c6745e4ab523f]
link ImplementedEntityASpaceHandler to EntityARepository--><path d="M755.072,861.5 C921.334,861.5 1087.6,861.5 1253.86,861.5 " fill="none" id="ImplementedEntityASpaceHandler-&gt;EntityARepository" style="stroke: #A80036; stroke-width: 1.0;"/><polygon fill="#A80036" points="1259.27,861.5,1250.27,857.5,1254.27,861.5,1250.27,865.5,1259.27,861.5" style="stroke: #A80036; stroke-width: 1.0;"/><!--MD5=[01746f8236aa9e434d6f4aa3dfe7221a]
link EntityAService to EntityASpaceHandlerHolder--><path d="M182.762,394.606 C226.653,418.697 287.718,452.214 332.731,476.92 " fill="none" id="EntityAService-&gt;EntityASpaceHandlerHolder" style="stroke: #A80036; stroke-width: 1.0;"/><polygon fill="#A80036" points="337.311,479.434,331.3461,471.5969,332.9279,477.0281,327.4967,478.6099,337.311,479.434" style="stroke: #A80036; stroke-width: 1.0;"/><!--MD5=[3891e6cf3f29ba74b12e58136bf1636f]
link o.w.o.api.symbol to EntityAService--><path d="M127,150.477 C127,150.7707 127,151.0655 127,151.3611 C127,151.9525 127,152.5476 127,153.1464 C127,162.7274 127,173.2516 127,184.3238 C127,228.6125 127,281.67 127,318.21 " fill="none" id="o.w.o.api.symbol-&gt;EntityAService" style="stroke: #A80036; stroke-width: 1.0;"/><polygon fill="#A80036" points="127,331.46,131,325.46,127,319.46,123,325.46,127,331.46" style="stroke: #A80036; stroke-width: 1.0;"/><text fill="#000000" font-family="sans-serif" font-size="13" lengthAdjust="spacingAndGlyphs" textLength="143" x="128" y="189.8979">调用服务层进行接口响应</text><!--MD5=[7e715cb0522cb232eeaed41cd0676e01]
@startuml



package o.w.o.server.io.db {
    annotation EntityEnumerated {}
    class EntityIdentity {}
    class EntitySpace<EntityType> extends EntityIdentity {}
    class EntityWithSpace<EntityType, EntitySpace> extends EntityIdentity {}
}

class EntityType {
  + EntityType(EntityTypeEnum type)
}
enum EntityTypeEnum {
  + Integer id
  + String typeName
}
interface EntityTypeRepository<Integer, EntityType> {
  + save(EntityType type)
}

EntityType *- - EntityEnumerated
EntityTypeRepository *- - EntityEnumerated
EntityTypeEnum *- - EntityEnumerated

package o.w.o.server.io.runner {
    class EnumeratedEntitySetupRunner {}
    note bottom of EnumeratedEntitySetupRunner
      基于 <b>@EntityEnumerated</b> 注解
      借助 <b>EntityTypeRepository</b>
      使用 <b>EntityTypeEnum</b> 枚举
      进行实体 <b>EntityType</b> 收集和持久化
    end note
}
EnumeratedEntitySetupRunner -right- -* EntityEnumerated

package o.w.o.resource.symbol {
  package domain {
    class EntityA extends EntityWithSpace {
     + EntityAType type
     + EntityASpace space
     + String spaceId
     + Json spaceContent
    }

    class EntityAType {
      + EntityAType from(EntityATypeEnum type)
    }

    enum EntityATypeEnum {
      Integer id;
      String typeName;
    }

    class EntityATypeName {
    }

    abstract class EntityASpace extends EntitySpace {
     + String id
     + Map<String, Object> space
     + Json spaceSchema
     + EntityAType type
    }

    package ext.space {
     class ImplementedEntitySpace extends EntityASpace {
       EntityAType type = EntityAType.X
     }
    }

    EntityAType *- - EntityATypeEnum
    EntityAType *- - EntityATypeName

    EntityA *- - EntityAType : 具象化依据
    EntityA *- EntityASpace : 抽象化载体

    EntityASpace -left- -|> ext.space : 具象化载体实例

  }

  package repository {
    interface EntityARepository {
      + save(EntityA entityA)
    }
  }
  EntityARepository -left- - -* EntityA

  package service {
    package handler {
      package ext.handler {
       class ImplementedEntityASpaceHandler {
         + save(EntityA entityA)
       }
      }
      abstract EntityASpaceHandler {
        + save(EntityA entityA)
      }
      annotation EntityATypeSelector {}
      class EntityASpaceHandlerHolder implements ApplicationContextAware {
        + Optional<EntityASpaceHandler> select(EntityAType entityAType)
      }
    }

    note left of EntityASpaceHandlerHolder
    程序启动后 收集 <b>@EntityATypeSelector</b> 注解的 Handler，
    执行时 通过 <b>select</b> 方法调用响应 Handler
    end note

    class EntityAService {
      + save(EntityA entityA)
    }

    EntityASpaceHandlerHolder <- EntityATypeSelector : 执行者收集
    EntityASpaceHandlerHolder <- - EntityASpaceHandler : 执行者定义

    EntityASpaceHandler - -|> ext.handler : 具体执行者

    ImplementedEntityASpaceHandler -> EntityARepository
    EntityAService - -> EntityASpaceHandlerHolder
  }
}

package o.w.o.api.symbol <<Cloud>> #Gold {
  class EntityAAPI{}
}

o.w.o.api.symbol - -* EntityAService : 调用服务层进行接口响应
@enduml

PlantUML version 1.2020.09(Sun May 10 18:51:06 CST 2020)
(GPL source distribution)
Java Runtime: OpenJDK Runtime Environment
JVM: OpenJDK 64-Bit Server VM
Java Version: 11.0.7+10-b765.53
Operating System: Windows 10
Default Encoding: GBK
Language: zh
Country: CN
--></g></svg>